<?xml version="1.0" encoding="UTF-8" standalone="no"?>
<svg width="53px" height="51px" viewBox="0 0 53 51" version="1.1" xmlns="http://www.w3.org/2000/svg" xmlns:xlink="http://www.w3.org/1999/xlink">
    <!-- Generator: Sketch 43.1 (39012) - http://www.bohemiancoding.com/sketch -->
    <title>Group 3</title>
    <desc>Created with Sketch.</desc>
    <defs>
        <rect id="path-1" x="0" y="0" width="65" height="65"></rect>
    </defs>
    <g id="Page-1" stroke="none" stroke-width="1" fill="none" fill-rule="evenodd">
        <g id="基础设置" transform="translate(-722.000000, -632.000000)">
            <g id="Group-3" transform="translate(716.000000, 625.000000)">
                <mask id="mask-2" fill="white">
                    <use xlink:href="#path-1"></use>
                </mask>
                <g id="Mask"></g>
                <g mask="url(#mask-2)">
                    <g transform="translate(7.000000, 8.000000)">
                        <path d="M19.6912863,34.5271203 L19.6912863,7.69726919 L19.6912863,34.5029586 L50.2699309,34.5029586 L50.2699309,0 L19.6912863,0 L19.6912863,7.4418146 L13.4753997,7.4418146 L6.68991476,18.4595661 L0,20.5374753 L0,34.5271203 L0,43.1045365 L5.63883579,43.1045365 C5.63864244,46.3821462 8.22733102,49 11.4206402,49 C14.6139494,49 17.202638,46.3821462 17.202638,43.15286 C17.202638,43.1367368 34.9788905,43.1045365 34.9788905,43.1045365 C34.9786972,46.3821462 37.5673858,49 40.760695,49 C43.9540041,49 46.5426927,46.3821462 46.5426927,43.15286 C46.5426927,43.1367368 50.2699309,43.1045365 50.2699309,43.1045365 L50.2699309,34.5029586" id="Combined-Shape" stroke="none" fill-opacity="0.915704257" fill="#9BECF3" fill-rule="evenodd"></path>
                        <path d="M19.6912863,7.69726919 L19.6912863,34.5029586 L50.2699309,34.5029586 M50.2699309,24.6557928 L50.2699309,0.99707348 C50.2699309,0.446405003 49.8139369,0 49.2699098,0 L20.6913074,0 C20.139011,0 19.6912863,0.443233153 19.6912863,1.00363623 L19.6912863,7.4418146 L14.4740894,7.4418146 C13.9225284,7.4418146 13.241828,7.82107054 12.9542211,8.28806464 L7.21109342,17.613316 C6.9232544,18.080687 6.27143063,18.5895486 5.73141309,18.7572798 L0.958501676,20.2397616 C0.429135818,20.4041844 0,20.9870913 0,21.5435761 L0,34.5271203 L0,42.1038109 C0,42.6564964 0.442469987,43.1045365 1.00811084,43.1045365 L5.63883579,43.1045365 C5.63864244,46.3821462 8.22733102,49 11.4206402,49 C14.6139494,49 17.202638,46.3821462 17.202638,43.15286 M17.2027621,43.1355581 C17.7877606,43.1333576 23.897664,43.1379099 24.6942875,43.1356083 L17.2027621,43.1355581 Z M24.1345233,43.1272279 C29.1240107,43.1151422 34.9788905,43.1045365 34.9788905,43.1045365 C34.9786972,46.3821462 37.5673858,49 40.760695,49 C43.9540041,49 46.5426927,46.3821462 46.5426927,43.15286 M50.2699309,43.1045365 L50.2699309,34.5029586" id="Combined-Shape-Copy" stroke="#46676A" stroke-width="2" fill="none" stroke-linecap="round"></path>
                        <path d="M15.4237288,10.6909091 C14.9369694,10.6909091 14.36954,11.0403215 14.1457191,11.4928154 L13.220339,13.3636364" id="Path-2" stroke="#FFFFFF" stroke-width="2" fill="none" stroke-linecap="round"></path>
                    </g>
                </g>
            </g>
        </g>
    </g>
</svg>