<?xml version="1.0" encoding="UTF-8" standalone="no"?>
<svg width="72px" height="26px" viewBox="0 0 72 26" version="1.1" xmlns="http://www.w3.org/2000/svg" xmlns:xlink="http://www.w3.org/1999/xlink">
    <!-- Generator: Sketch 3.8.3 (29802) - http://www.bohemiancoding.com/sketch -->
    <title>logo copy</title>
    <desc>Created with Sketch.</desc>
    <defs></defs>
    <g id="收银台" stroke="none" stroke-width="1" fill="none" fill-rule="evenodd">
        <g id="收银结账－会员" transform="translate(-65.000000, -848.000000)" fill="#ECECEC">
            <g id="footer" transform="translate(0.000000, 839.000000)">
                <g id="logo-copy" transform="translate(65.000000, 9.000000)">
                    <path d="M47.973169,1.44581107 C47.973169,1.08060674 48.2682836,0.784611193 48.6346783,0.784611193 L51.2374354,0.784611193 C51.6027564,0.784611193 51.8989447,1.08077192 51.8989447,1.44581107 L51.8989447,4.02115404 C51.8989447,4.38635837 51.6039127,4.68235392 51.2374354,4.68235392 L48.6346783,4.68235392 C48.2693574,4.68235392 47.973169,4.3861932 47.973169,4.02115404 L47.973169,1.44581107 L47.973169,1.44581107 Z" id="Fill-1"></path>
                    <g id="Group-5" transform="translate(20.483744, 19.541240)">
                        <path d="M0.0334182379,5.40862492 L0.0334182379,0.137195258 L0.597794955,0.137195258 L0.597794955,3.20195498 L3.68935364,0.137195258 L4.42536432,0.137195258 L2.16810523,2.3438652 L4.57263253,5.40862492 L3.88560113,5.40862492 L1.8000586,2.73615841 L0.597794955,3.88850939 L0.597794955,5.40862492 L0.0334182379,5.40862492 Z M5.0388029,3.22648363 L5.0388029,0.137195258 L5.60317962,0.137195258 L5.60317962,3.32459822 C5.60317962,4.53418271 6.13476583,5.13889237 7.19802084,5.13889237 C8.29398376,5.18794967 8.82556997,4.58315742 8.79286205,3.32459822 L8.79286205,0.137195258 L9.35715617,0.137195258 L9.35715617,3.20195498 C9.40621805,4.80383268 8.67838435,5.58024288 7.1734899,5.53118558 C5.73401128,5.54753801 5.02244895,4.77930403 5.0388029,3.22648363 L5.0388029,3.22648363 Z M9.87247102,5.40862492 L12.0806682,0.137195258 L12.6941068,0.137195258 L14.9269176,5.40862492 L14.3380099,5.40862492 L13.6509785,3.79039479 L11.1237965,3.79039479 L10.4612961,5.40862492 L9.87247102,5.40862492 Z M12.399653,0.676577773 L11.2955131,3.42263023 L13.5037929,3.42263023 L12.399653,0.676577773 Z M15.368557,5.40862492 L15.9083202,5.40862492 L15.9083202,0.137195258 L15.368557,0.137195258 L15.368557,5.40862492 Z M18.8036314,5.43315357 L18.8036314,0.137195258 L22.4349533,0.137195258 L22.4349533,0.504959818 L19.3679255,0.504959818 L19.3679255,2.54001181 L22.3122986,2.54001181 L22.3122986,2.90777637 L19.3679255,2.90777637 L19.3679255,5.43315357 L18.8036314,5.43315357 Z M23.0729228,3.22648363 L23.0729228,0.137195258 L23.6372169,0.137195258 L23.6372169,3.32459822 C23.6372169,4.53418271 24.1688857,5.13889237 25.2320581,5.13889237 C26.328021,5.18794967 26.8596898,4.58315742 26.8269819,3.32459822 L26.8269819,0.137195258 L27.3912761,0.137195258 L27.3912761,3.20195498 C27.4403379,4.80383268 26.7124216,5.58024288 25.2075272,5.53118558 C23.7680486,5.54753801 23.0565688,4.77930403 23.0729228,3.22648363 L23.0729228,3.22648363 Z M30.1883809,0.504959818 L30.1883809,0.137195258 L34.4822033,0.137195258 L34.4822033,0.504959818 L32.5929082,0.504959818 L32.5929082,5.40862492 L32.053145,5.40862492 L32.053145,0.504959818 L30.1883809,0.504959818 Z M37.6229064,5.13889237 C38.9151168,5.08991766 39.5857943,4.31350746 39.6348561,2.80966177 C39.5694403,1.3222511 38.9151168,0.529488467 37.6719683,0.431373871 C36.4123832,0.529488467 35.7417883,1.3222511 35.659936,2.80966177 C35.7254344,4.28080259 36.3796753,5.05721279 37.6229064,5.13889237 L37.6229064,5.13889237 Z M37.6229064,5.50665693 C36.0034517,5.40862492 35.1528807,4.51783028 35.0711109,2.83419042 C35.1528807,1.06887098 36.0198056,0.145371475 37.6719683,0.0636093114 C39.2586325,0.17807634 40.1092035,1.09339963 40.2236812,2.80966177 C40.1582654,4.54235893 39.2913404,5.44132979 37.6229064,5.50665693 L37.6229064,5.50665693 Z M40.8861816,5.43315357 L40.8861816,0.137195258 L41.4259448,0.137195258 L44.6157099,4.64856715 L44.6157099,0.137195258 L45.155473,0.137195258 L45.155473,5.43315357 L44.6157099,5.43315357 L41.4259448,0.946310324 L41.4259448,5.43315357 L40.8861816,5.43315357 Z M50.7742963,1.65731079 L50.1608577,1.65731079 C49.8827578,0.840019512 49.2857558,0.431373871 48.369769,0.431373871 C47.1592458,0.513136034 46.5131819,1.31407488 46.4313295,2.83419042 C46.5131819,4.27262638 47.2001307,5.04086036 48.4924237,5.13889237 C49.3266407,5.13889237 49.9072888,4.89377106 50.2344505,4.40336325 L50.2344505,3.03033702 L48.4188309,3.03033702 L48.4188309,2.63804381 L50.7742963,2.63804381 L50.7742963,4.57498121 C50.3162203,5.19612588 49.5638557,5.50665693 48.5169546,5.50665693 C46.832084,5.42497735 45.9488052,4.5260065 45.8670354,2.80966177 C45.9324512,1.06069476 46.7748452,0.145371475 48.3942999,0.0636093114 C49.6047406,0.0472568787 50.3980727,0.578545765 50.7742963,1.65731079 L50.7742963,1.65731079 Z" id="Fill-3"></path>
                    </g>
                    <path d="M29.0508228,16.5547734 L33.2907101,16.5547734 L33.2907101,15.7306273 L29.0508228,15.7306273 L29.0508228,16.5547734 Z M29.0508228,18.5223509 L29.0508228,18.5277192 L27.0879349,18.5277192 C26.0038658,18.5277192 25.1250471,17.6488998 25.1250471,16.5644362 L25.1250471,11.2195858 L28.2264347,11.2195858 L45.1465857,11.2195858 L45.1465857,13.1871633 L37.2164858,13.1871633 L37.2164858,14.0440969 L42.602389,14.0440969 L45.1465857,14.0440969 L45.1465857,18.5207818 L43.9979267,18.5207818 L43.9979267,18.5223509 L29.0508228,18.5223509 Z M37.2164858,16.5547734 L41.22081,16.5547734 L41.22081,15.7306273 L37.2164858,15.7306273 L37.2164858,16.5547734 Z M29.0508228,14.0440969 L33.2907101,14.0440969 L33.2907101,13.1871633 L29.0508228,13.1871633 L29.0508228,14.0440969 Z M55.3929181,4.15830801 L52.6055596,4.15830801 L52.6055596,15.8535183 L56.5314179,15.8535183 L56.5314179,12.6379528 L58.4943057,12.6379528 L58.4943057,15.8535183 L62.4200814,15.8535183 L62.4200814,12.6379528 L64.3829693,12.6379528 L64.3829693,15.8535183 L66.3458571,15.8535183 C67.430174,15.8535183 68.308745,14.9749467 68.308745,13.8910612 L68.308745,4.15830801 L64.5792994,4.15830801 L55.3929181,4.15830801 Z M56.5314179,7.29665367 L58.4943057,7.29665367 L58.4943057,5.84475586 L56.5314179,5.84475586 L56.5314179,7.29665367 Z M62.4200814,7.29665367 L64.3829693,7.29665367 L64.3829693,5.84475586 L62.4200814,5.84475586 L62.4200814,7.29665367 Z M56.5314179,10.6703753 L58.4943057,10.6703753 L58.4943057,9.26423123 L56.5314179,9.26423123 L56.5314179,10.6703753 Z M62.4200814,10.6703753 L64.3829693,10.6703753 L64.3829693,9.26423123 L62.4200814,9.26423123 L62.4200814,10.6703753 Z M68.3042848,2.75216397 L68.3118836,2.75216397 L68.3118836,0.784586416 L53.6674105,0.784586416 C53.2101604,0.784586416 52.8411226,1.15433309 52.8411226,1.61046685 L52.8411226,2.75216397 L64.236527,2.75216397 L61.2383841,4.15673883 L65.3921241,4.15673883 L68.3042848,2.75216397 Z M51.584924,18.5162394 L49.9360651,18.5162394 C48.851996,18.5162394 47.9731773,17.6377504 47.9731773,16.5541953 L47.9731773,7.88476313 L29.0508228,7.88476313 L29.0508228,9.66982111 L29.0508228,10.6764868 L18.3626032,10.6764868 L22.9033042,18.3966519 L20.2931961,18.3966519 L19.1482539,18.3966519 C19.1482539,18.3966519 18.8057293,17.8143236 18.6345083,17.5232008 L14.6102785,10.6811117 L14.5819482,10.6811117 L9.64371385,22.4983046 L6.28124112,22.4983046 L11.2213751,10.6764868 L8.95081815,10.6764868 L8.95081815,8.70890922 L12.4054677,8.70890922 L12.4054677,3.9290436 L8.95081815,3.9290436 L8.95081815,1.96146604 L12.4054677,1.96146604 L12.4054677,0 L16.331326,0 L16.331326,1.96146604 L18.3862255,1.96146604 L19.393398,1.96146604 C20.4774672,1.96146604 21.3562859,2.84086353 21.3562859,3.92441867 L21.3562859,8.14524582 L17.4305102,8.14524582 L17.4305102,3.9290436 L16.331326,3.9290436 L16.331326,8.70890922 L25.1250471,8.70890922 L25.1250471,7.02419572 C25.1250471,6.56806195 25.4944152,6.19823269 25.9504263,6.19823269 L28.2254435,6.19823269 C28.2389892,6.19823269 28.2523697,6.19856304 28.2656676,6.19922375 L28.2656676,6.19823269 L48.9153469,6.19823269 L51.0735737,6.19823269 C51.5294196,6.19823269 51.898953,6.56855748 51.898953,7.02436089 L51.898953,16.5547734 L71.2138851,16.5547734 L71.2138851,18.5223509 L51.584924,18.5223509 L51.584924,18.5162394 Z M25.1250471,4.44546664 L25.1250471,1.61079721 C25.1250471,1.15449826 25.4944152,0.784586416 25.9504263,0.784586416 L28.2264347,0.784586416 L33.2907101,0.784586416 L33.2907101,0 L37.2164858,0 L37.2164858,0.784586416 L42.0467675,0.784586416 L44.3212065,0.784586416 C44.7770524,0.784586416 45.1465857,1.15458085 45.1465857,1.61079721 L45.1465857,5.28191834 L41.22081,5.28191834 L41.22081,2.75216397 L29.0508228,2.75216397 L29.0508228,3.60909752 L40.6892238,3.60909752 L40.6892238,5.29595831 L25.1250471,5.29595831 L25.1250471,4.44546664 Z M4.47536778,1.96146604 L8.40122607,1.96146604 L8.40122607,14.9054076 C8.40122607,15.3611284 8.03185791,15.7306273 7.57584681,15.7306273 L4.47536778,15.7306273 L4.47536778,1.96146604 Z M1.71852197e-14,1.96146604 L3.9257757,1.96146604 L3.9257757,9.84936752 C3.9257757,10.3053361 3.55649013,10.6750002 3.10039643,10.6750002 L1.71852197e-14,10.6750002 L1.71852197e-14,1.96146604 Z M41.22081,8.94428515 L45.1465857,8.94428515 L45.1465857,8.39507466 L41.22081,8.39507466 L41.22081,8.94428515 Z M29.6789634,10.6308156 L29.6789634,8.94428515 L45.1497244,8.94428515 L45.1497244,9.80485256 C45.1497244,10.2609863 44.7806866,10.6308156 44.3234366,10.6308156 L30.5052512,10.6308156 L29.6789634,10.6308156 Z" id="Fill-6"></path>
                </g>
            </g>
        </g>
    </g>
</svg>