<?xml version="1.0" encoding="UTF-8" standalone="no"?>
<svg width="118px" height="42px" viewBox="0 0 118 42" version="1.1" xmlns="http://www.w3.org/2000/svg" xmlns:xlink="http://www.w3.org/1999/xlink">
    <!-- Generator: Sketch 3.8.3 (29802) - http://www.bohemiancoding.com/sketch -->
    <title>logo</title>
    <desc>Created with Sketch.</desc>
    <defs></defs>
    <g id="收银台" stroke="none" stroke-width="1" fill="none" fill-rule="evenodd">
        <g id="收银结账－会员" transform="translate(-65.000000, -16.000000)">
            <g id="logo" transform="translate(65.000000, 16.000000)">
                <path d="M79.3402411,2.39114908 C79.3402411,1.7871573 79.8283152,1.2976262 80.4342757,1.2976262 L84.7388355,1.2976262 C85.3430202,1.2976262 85.8328701,1.78743048 85.8328701,2.39114908 L85.8328701,6.65037015 C85.8328701,7.25436192 85.3449326,7.74389302 84.7388355,7.74389302 L80.4342757,7.74389302 C79.830091,7.74389302 79.3402411,7.25408875 79.3402411,6.65037015 L79.3402411,2.39114908 L79.3402411,2.39114908 Z" id="Fill-1" fill="#F6A623"></path>
                <g id="Group-5" transform="translate(33.876962, 32.318204)" fill="#09AAB8">
                    <path d="M0.0552686242,8.94503352 L0.0552686242,0.22689985 L0.988660887,0.22689985 L0.988660887,5.29554092 L6.10162333,0.22689985 L7.31887175,0.22689985 L3.5857125,3.87639245 L7.56243072,8.94503352 L6.42618648,8.94503352 L2.97701999,4.52518506 L0.988660887,6.43099629 L0.988660887,8.94503352 L0.0552686242,8.94503352 Z M8.3334048,5.33610754 L8.3334048,0.22689985 L9.26679707,0.22689985 L9.26679707,5.49837398 C9.26679707,7.49884064 10.1459589,8.49893738 11.9044191,8.49893738 C13.7169731,8.5800706 14.5961349,7.57983728 14.5420411,5.49837398 L14.5420411,0.22689985 L15.4752968,0.22689985 L15.4752968,5.29554092 C15.5564375,7.94480019 14.3527126,9.22886322 11.8638487,9.14772999 C9.4831725,9.1747744 8.30635787,7.90423358 8.3334048,5.33610754 L8.3334048,5.33610754 Z M16.3275482,8.94503352 L19.9795667,0.22689985 L20.9940997,0.22689985 L24.6868252,8.94503352 L23.7128625,8.94503352 L22.5766183,6.26872984 L18.3970481,6.26872984 L17.3013743,8.94503352 L16.3275482,8.94503352 Z M20.5071184,1.11895555 L18.6810409,5.66050384 L22.3331959,5.66050384 L20.5071184,1.11895555 Z M25.4172289,8.94503352 L26.3099142,8.94503352 L26.3099142,0.22689985 L25.4172289,0.22689985 L25.4172289,8.94503352 Z M31.0983134,8.98560013 L31.0983134,0.22689985 L37.1039612,0.22689985 L37.1039612,0.835125852 L32.0315691,0.835125852 L32.0315691,4.20078876 L36.9011092,4.20078876 L36.9011092,4.80901476 L32.0315691,4.80901476 L32.0315691,8.98560013 L31.0983134,8.98560013 Z M38.1590646,5.33610754 L38.1590646,0.22689985 L39.0923203,0.22689985 L39.0923203,5.49837398 C39.0923203,7.49884064 39.9716187,8.49893738 41.7299423,8.49893738 C43.5424963,8.5800706 44.4217947,7.57983728 44.3677009,5.49837398 L44.3677009,0.22689985 L45.3009566,0.22689985 L45.3009566,5.29554092 C45.3820973,7.94480019 44.1782358,9.22886322 41.6893719,9.14772999 C39.3086957,9.1747744 38.1320177,7.90423358 38.1590646,5.33610754 L38.1590646,5.33610754 Z M49.9269377,0.835125852 L49.9269377,0.22689985 L57.0282592,0.22689985 L57.0282592,0.835125852 L53.9036559,0.835125852 L53.9036559,8.94503352 L53.0109706,8.94503352 L53.0109706,0.835125852 L49.9269377,0.835125852 Z M62.2224991,8.49893738 C64.3596163,8.41794074 65.4688136,7.13387772 65.5499544,4.64674831 C65.4417666,2.1867999 64.3596163,0.875692464 62.3036398,0.713426017 C60.2204799,0.875692464 59.1114192,2.1867999 58.9760479,4.64674831 C59.0843723,7.07978891 60.166386,8.36385193 62.2224991,8.49893738 L62.2224991,8.49893738 Z M62.2224991,9.10716338 C59.5441701,8.94503352 58.1374565,7.47179623 58.0022219,4.68731492 C58.1374565,1.76774816 59.571217,0.240422054 62.3036398,0.105200015 C64.9277384,0.29451087 66.3344519,1.80831477 66.5237804,4.64674831 C66.4155927,7.51236284 64.9818323,8.99912234 62.2224991,9.10716338 L62.2224991,9.10716338 Z M67.6194543,8.98560013 L67.6194543,0.22689985 L68.5121395,0.22689985 L73.7875202,7.68801491 L73.7875202,0.22689985 L74.6802054,0.22689985 L74.6802054,8.98560013 L73.7875202,8.98560013 L68.5121395,1.56505169 L68.5121395,8.98560013 L67.6194543,8.98560013 Z M83.9728746,2.74093708 L82.9583416,2.74093708 C82.4984072,1.38926304 81.5110577,0.713426017 79.9961564,0.713426017 C77.9941373,0.848648056 76.925647,2.17327769 76.7902757,4.68731492 C76.925647,7.0662667 78.0617546,8.33680752 80.1990084,8.49893738 C81.578675,8.49893738 82.5389776,8.09354444 83.0800528,7.28248538 L83.0800528,5.01171123 L80.0772972,5.01171123 L80.0772972,4.36291862 L83.9728746,4.36291862 L83.9728746,7.56631507 C83.2152874,8.59359281 81.9709921,9.10716338 80.2395788,9.10716338 C77.4530621,8.97207793 75.9922547,7.48531844 75.85702,4.64674831 C75.9652078,1.75422596 77.3583978,0.240422054 80.0367268,0.105200015 C82.0386094,0.0781556071 83.3506587,0.956825688 83.9728746,2.74093708 L83.9728746,2.74093708 Z" id="Fill-3"></path>
                </g>
                <path d="M48.0455915,27.3790483 L55.0577128,27.3790483 L55.0577128,26.0160375 L48.0455915,26.0160375 L48.0455915,27.3790483 Z M48.0455915,30.6331189 L48.0455915,30.6419971 L44.799277,30.6419971 C43.0063934,30.6419971 41.5529625,29.188565 41.5529625,27.3950291 L41.5529625,18.5554687 L46.6821804,18.5554687 L74.6655072,18.5554687 L74.6655072,21.8095393 L61.5503419,21.8095393 L61.5503419,23.2267756 L70.4577973,23.2267756 L74.6655072,23.2267756 L74.6655072,30.6305237 L72.7658019,30.6305237 L72.7658019,30.6331189 L48.0455915,30.6331189 Z M61.5503419,27.3790483 L68.1728781,27.3790483 L68.1728781,26.0160375 L61.5503419,26.0160375 L61.5503419,27.3790483 Z M48.0455915,23.2267756 L55.0577128,23.2267756 L55.0577128,21.8095393 L48.0455915,21.8095393 L48.0455915,23.2267756 Z M91.6113646,6.8772017 L87.0015024,6.8772017 L87.0015024,26.2192803 L93.494268,26.2192803 L93.494268,20.9012297 L96.7405825,20.9012297 L96.7405825,26.2192803 L103.233212,26.2192803 L103.233212,20.9012297 L106.479526,20.9012297 L106.479526,26.2192803 L109.725841,26.2192803 C111.519134,26.2192803 112.972155,24.766258 112.972155,22.9736782 L112.972155,6.8772017 L106.804226,6.8772017 L91.6113646,6.8772017 Z M93.494268,12.0675426 L96.7405825,12.0675426 L96.7405825,9.666327 L93.494268,9.666327 L93.494268,12.0675426 Z M103.233212,12.0675426 L106.479526,12.0675426 L106.479526,9.666327 L103.233212,9.666327 L103.233212,12.0675426 Z M93.494268,17.6471591 L96.7405825,17.6471591 L96.7405825,15.3216132 L93.494268,15.3216132 L93.494268,17.6471591 Z M103.233212,17.6471591 L106.479526,17.6471591 L106.479526,15.3216132 L103.233212,15.3216132 L103.233212,17.6471591 Z M112.964779,4.5516558 L112.977346,4.5516558 L112.977346,1.29758523 L88.7576404,1.29758523 C88.0014192,1.29758523 87.3910874,1.90908934 87.3910874,2.66346441 L87.3910874,4.5516558 L106.237333,4.5516558 L101.278866,6.87460653 L108.148513,6.87460653 L112.964779,4.5516558 Z M85.3135281,30.6230114 L82.5865693,30.6230114 C80.7936857,30.6230114 79.3402547,29.1701257 79.3402547,27.3780922 L79.3402547,13.0401852 L48.0455915,13.0401852 L48.0455915,15.9923965 L48.0455915,17.6572666 L30.3689206,17.6572666 L37.8785415,30.4252321 L33.5618243,30.4252321 L31.668266,30.4252321 C31.668266,30.4252321 31.1017831,29.4621506 30.8186099,28.9806782 L24.1631529,17.6649155 L24.1162989,17.6649155 L15.9492191,37.2087344 L10.3882065,37.2087344 L18.5584281,17.6572666 L14.8032762,17.6572666 L14.8032762,14.403196 L20.5167351,14.403196 L20.5167351,6.49803364 L14.8032762,6.49803364 L14.8032762,3.24396307 L20.5167351,3.24396307 L20.5167351,0 L27.0095007,0 L27.0095007,3.24396307 L30.4079884,3.24396307 L32.0736968,3.24396307 C33.8665803,3.24396307 35.3200113,4.69835123 35.3200113,6.49038472 L35.3200113,13.4709835 L28.8273822,13.4709835 L28.8273822,6.49803364 L27.0095007,6.49803364 L27.0095007,14.403196 L41.5529625,14.403196 L41.5529625,11.6169391 C41.5529625,10.862564 42.1638406,10.2509233 42.9180128,10.2509233 L46.6805412,10.2509233 C46.7029437,10.2509233 46.725073,10.2514696 46.7470657,10.2525624 L46.7470657,10.2509233 L80.8984584,10.2509233 L84.4678335,10.2509233 C85.2217325,10.2509233 85.8328838,10.8633835 85.8328838,11.6172122 L85.8328838,27.3790483 L117.77681,27.3790483 L117.77681,30.6331189 L85.3135281,30.6331189 L85.3135281,30.6230114 Z M41.5529625,7.3521179 L41.5529625,2.66401077 C41.5529625,1.90936251 42.1638406,1.29758523 42.9180128,1.29758523 L46.6821804,1.29758523 L55.0577128,1.29758523 L55.0577128,0 L61.5503419,0 L61.5503419,1.29758523 L69.5388847,1.29758523 L73.3004569,1.29758523 C74.0543559,1.29758523 74.6655072,1.9094991 74.6655072,2.66401077 L74.6655072,8.73548034 L68.1728781,8.73548034 L68.1728781,4.5516558 L48.0455915,4.5516558 L48.0455915,5.96889205 L67.2937163,5.96889205 L67.2937163,8.75870028 L41.5529625,8.75870028 L41.5529625,7.3521179 Z M7.40156979,3.24396307 L13.8943354,3.24396307 L13.8943354,24.651251 C13.8943354,25.4049431 13.2834573,26.0160375 12.5292851,26.0160375 L7.40156979,26.0160375 L7.40156979,3.24396307 Z M2.84217094e-14,3.24396307 L6.49262904,3.24396307 L6.49262904,16.2893386 C6.49262904,17.0434405 5.88188752,17.654808 5.12757872,17.654808 L2.84217094e-14,17.654808 L2.84217094e-14,3.24396307 Z M68.1728781,14.7924716 L74.6655072,14.7924716 L74.6655072,13.8841619 L68.1728781,13.8841619 L68.1728781,14.7924716 Z M49.0844395,17.5817335 L49.0844395,14.7924716 L74.670698,14.7924716 L74.670698,16.2157177 C74.670698,16.9700928 74.0603663,17.5817335 73.3041451,17.5817335 L50.4509924,17.5817335 L49.0844395,17.5817335 Z" id="Fill-6" fill="#09AAB8"></path>
            </g>
        </g>
    </g>
</svg>