<?xml version="1.0" encoding="UTF-8" standalone="no"?>
<svg width="377px" height="141px" viewBox="0 0 377 141" version="1.1" xmlns="http://www.w3.org/2000/svg" xmlns:xlink="http://www.w3.org/1999/xlink">
    <!-- Generator: Sketch 3.8.3 (29802) - http://www.bohemiancoding.com/sketch -->
    <title>slogan</title>
    <desc>Created with Sketch.</desc>
    <defs></defs>
    <g id="登录" stroke="none" stroke-width="1" fill="none" fill-rule="evenodd" opacity="0.8">
        <g id="login" transform="translate(-223.000000, -313.000000)" fill="#FFFFFF">
            <g id="slogan" transform="translate(223.000000, 313.000000)">
                <polygon id="Fill-1" points="315.079367 87.1643051 314.431329 86.5044474 311.374617 84.1955028 311.10581 84.7210482 311.423694 85.8445897 311.668521 87.7143723 311.875983 93.6519771 311.692502 93.7740285 311.423694 94.0549138 311.350637 94.2137478 311.313829 94.3725818 311.30156 94.5436767 311.313829 94.7270324 311.374617 94.922649 311.472771 95.0692221 311.545829 95.301064 311.582637 95.5825067 311.619444 95.9486609 312.389617 99.0155502 312.389617 99.1866451 312.475502 99.5405383 312.682963 99.8582063 312.817367 100.01704 313.15979 100.286222 314.687867 102.338803 315.715137 104.122202 316.986675 101.312234 317.243213 98.5022656 317.206406 96.1810601 317.10881 95.4236727 316.509848 93.1264316 316.216502 92.3690443 316.265021 92.2224711 316.27729 92.1366451 316.301829 92.0636372 316.350906 91.7214474 316.326367 91.5258308 316.216502 90.8420087 315.715137 89.5590759 315.739675 89.1070957 315.715137 88.6913407 315.507117 87.8971708"></polygon>
                <path d="M355.58389,70.9150304 L354.679313,71.2934455 L354.177948,71.4037933 L353.212025,71.4768012 L352.258371,71.6846787 L349.202217,71.9410423 L346.120967,72.442066 L346.109256,72.5641174 L346.084717,72.6009 L346.059621,72.6622043 L345.925217,72.8332992 L345.80364,72.8817854 L345.766833,72.8817854 L345.680948,72.918568 L345.522006,72.9547933 L345.387044,72.9547933 L345.363063,72.9676115 L345.277179,72.9676115 L345.118794,73.0289158 L345.021198,73.077402 L344.910775,73.1387063 L344.690487,73.3460265 L344.59289,73.4680779 L340.252371,74.7510107 L340.130237,74.7142281 L339.83689,74.6780028 L339.616602,74.6897063 L339.164313,74.812315 L338.810179,74.9834099 L338.064544,75.5574415 L337.685313,75.765319 L337.477294,75.8021016 L337.293813,75.8266233 L336.914583,75.7775798 L335.643602,77.0476945 L335.386506,76.7913308 L335.28891,77.0114692 L335.228121,77.121817 L335.191313,77.2316075 L335.105429,77.3168763 L335.068621,77.3291372 L335.032371,77.4272241 L334.947044,77.5124929 L334.909679,77.5241964 L334.872871,77.6100225 L334.420583,77.8792043 L334.274467,77.9276905 L334.151775,77.9889949 L333.858429,78.0748209 L333.736294,78.1478289 L333.528275,78.3919316 L333.393871,78.770904 L333.345352,79.6012992 L331.046544,83.4378368 L331.54791,83.9511213 L331.046544,84.7207696 L329.51791,80.6156075 L328.84589,78.1478289 L328.66241,76.7183229 L328.69866,76.4000976 L328.736025,76.2786036 L328.711487,76.1320304 L328.686948,76.0462043 L328.66241,76.0216826 L328.66241,75.9849 L328.478929,75.6310067 L328.161044,75.2158091 L327.733294,74.7510107 L325.679313,74.7510107 L327.463929,82.6681885 L326.950852,89.5587972 L324.395506,101.568876 L323.123967,110.243442 L322.806083,110.316449 L322.574083,110.426797 L322.402871,110.536588 L322.293006,110.695422 L322.207121,110.854256 L322.207121,111.049872 L322.243371,111.270011 L324.175775,115.521746 L324.212025,115.570232 L324.615794,116.290837 L324.811544,116.571722 L324.860063,116.621323 L324.92141,116.633026 L326.180679,119.443552 L326.083083,119.675394 L326.070256,119.931758 L326.119333,120.20094 L326.241467,120.457303 L326.424948,120.714224 L326.706025,120.97003 L327.463929,121.496133 L327.977563,120.725928 L329.004833,107.959019 L328.736025,107.689837 L330.53291,97.4759751 L330.704121,97.3907063 L330.777179,97.329402 L330.863063,97.2926194 L330.911583,97.2196115 L330.985198,97.1583071 L331.10789,97.0239949 L331.132429,96.9259079 L331.180948,96.8406391 L331.205487,96.7431095 L331.254006,96.6572834 L331.266833,96.535232 L331.290813,96.4377024 L331.303083,96.2053032 L331.230025,96.05873 L331.180948,95.7288012 L331.180948,95.3498289 L331.230025,94.9101095 L331.303083,94.6777103 L331.180948,94.5924415 L331.10789,94.5066154 L331.058813,94.4096431 L331.046544,94.2870344 L331.058813,94.1404613 L331.180948,93.8227933 L331.303083,93.6516984 L331.303083,89.0583308 L331.119602,88.8259316 L331.046544,88.6916194 L331.009737,88.5818289 L330.936679,88.2764217 L330.936679,87.5797814 L331.119602,86.7243071 L331.303083,86.2478051 L331.303083,86.101232 L331.38841,85.7713032 L331.730833,85.1727498 L332.073256,84.7207696 L333.100525,83.1692123 L333.858429,83.1692123 L336.914583,81.1405957 L337.941852,81.1405957 L338.284275,81.1779356 L338.430948,81.1651174 L338.577621,81.1288921 L338.687487,81.0308051 L338.737121,80.9695008 L338.797352,80.9210146 L338.968563,80.6156075 L340.754294,80.6156075 L342.551179,80.3592439 L343.064256,80.0047933 L343.541083,79.7239079 L343.834987,79.6012992 L345.363063,79.6012992 L345.571083,79.466987 L346.24366,79.2719277 L349.202217,79.0880146 L349.324352,78.9665206 L349.483294,78.8806945 L349.666775,78.8071292 L350.106794,78.7341213 L350.657237,78.7586431 L350.98739,78.8322083 L347.465563,84.8311174 L345.240929,87.8116233 L344.59289,88.5327854 L344.641967,88.6548368 L344.665948,88.7768881 L344.654237,89.0455126 L344.531544,89.3024336 L344.336352,89.5587972 L344.287275,89.742153 L344.201948,89.9622913 L343.810448,90.4387933 L343.517102,90.6951569 L342.281813,91.6113783 L342.025275,91.6359 L341.768179,91.7217261 L341.512198,91.8800028 L341.27964,92.112402 L341.27964,92.3693229 L339.727025,94.6777103 L338.528544,97.9156945 L338.491737,98.0260423 L338.467756,98.1971372 L338.467756,98.2578842 L338.626698,98.2701451 L338.78564,98.3437103 L338.83416,98.3799356 L338.907775,98.4535008 L339.02991,98.6245957 L339.164313,99.1010976 L339.21339,99.4065047 L339.22566,99.7849198 L339.44539,99.8947103 L339.64114,100.054102 L339.787813,100.212936 L339.922217,100.395734 L339.995833,100.591351 L340.03264,100.82375 L339.995833,101.312513 L339.922217,101.544355 L339.885967,101.984631 L339.959025,102.375307 L340.117967,102.705236 L340.252371,102.851809 L340.191583,103.022904 L340.179313,103.230224 L340.191583,103.401319 L340.24066,103.596936 L340.313717,103.780291 L340.570256,104.183228 L340.912679,104.54994 L341.035371,104.745556 L341.108429,104.90439 L341.132967,105.074928 L341.108429,105.222058 L341.071621,105.246023 L341.05991,105.246023 L341.05991,105.282805 L341.035371,105.380892 L340.912679,105.502943 L340.754294,105.649517 L341.035371,105.832872 L341.32816,105.906438 L341.67114,105.832872 L342.037544,105.649517 L342.09889,105.576509 L342.281813,105.515204 L342.551179,105.515204 L342.856794,105.576509 L343.064256,105.649517 L342.807717,105.649517 L342.819987,105.759307 L342.856794,105.906438 L342.929852,106.028489 L343.064256,106.162801 L343.309083,105.906438 L343.565621,106.162801 L345.619602,104.635208 L345.534275,104.635208 L345.338525,104.696513 L345.081987,104.806303 L344.59289,105.148493 L344.299544,105.234319 L344.006198,105.270544 L343.834987,105.258841 L343.309083,105.148493 L348.932852,101.067853 L349.703583,101.067853 L349.959563,105.649517 L349.874794,105.686299 L349.801179,105.747604 L349.629967,105.832872 L349.507833,105.845133 L349.409679,105.881916 L349.299813,105.893619 L349.202217,105.893619 L349.202217,105.906438 L349.959563,106.431426 L349.886506,106.675528 L349.703583,106.932449 L349.202217,106.932449 L349.226756,107.04224 L349.251294,107.103544 L349.312083,107.176552 L349.703583,107.432916 L348.676313,117.158572 L348.676313,126.859149 L348.54191,127.054766 L348.34616,127.470521 L348.211756,127.848936 L348.162679,128.215647 L348.162679,128.533315 L348.211756,128.80194 L348.34616,129.05886 L348.444313,129.193173 L348.676313,129.412754 L348.724833,129.522544 L348.749929,129.669675 L348.73766,129.974525 L348.688583,130.133916 L348.432044,130.695687 L349.202217,131.19671 L349.067256,131.367805 L348.945679,131.709438 L348.932852,131.893351 L348.945679,132.027663 L348.994198,132.18594 L349.067256,132.33307 L349.202217,132.479643 L349.55691,132.78505 L349.691313,132.907102 L349.886506,133.175726 L349.959563,133.310038 L349.959563,133.359639 L349.97239,133.383604 L350.009198,133.46943 L349.98466,133.530177 L349.98466,133.603742 L349.959563,133.750315 L350.130775,133.823323 L350.302544,133.945932 L350.449217,134.104766 L350.705756,134.556746 L350.98739,135.534272 L351.048179,136.096042 L351.109525,136.340145 L351.158602,136.438232 L351.23166,136.560283 L351.366063,136.719117 L351.549544,136.877951 L352.014102,137.073568 L353.016275,135.790635 L354.30064,132.014845 L354.361429,131.343283 L354.30064,130.695687 L354.30064,126.590525 L354.214756,126.492995 L354.116602,126.309639 L353.90914,125.784651 L353.787006,125.344374 L353.016275,121.496133 L353.273371,117.915959 L353.799275,114.336343 L354.190217,113.84758 L354.30064,113.615738 L354.361429,113.431825 L354.361429,113.249026 L354.30064,113.090192 L354.190217,112.931358 L354.043544,112.797046 L354.227025,111.721434 L354.30064,111.01309 L355.070256,108.98503 L355.119333,108.98503 L355.315083,109.033517 L355.571621,109.156125 L356.097525,109.486054 L357.625602,109.999339 L363.763006,105.405414 L364.007833,105.649517 L372.186948,98.5025443 L372.235467,98.2578842 L372.285102,98.1358328 L372.480294,97.9524771 L372.614698,97.8672083 L372.77364,97.7936431 L372.957121,97.7323387 L373.739563,96.7063269 L374.021198,96.4739277 L374.081987,96.4126233 L374.302275,96.217564 L374.742294,95.5577063 L374.790813,95.3866115 L374.815352,95.3381253 L375.060179,94.6905285 L375.157775,94.1895047 L375.182313,94.0429316 L375.585525,92.1246628 L375.854333,91.5261095 L376.221294,91.0496075 L376.49066,90.7804257 L376.796275,90.5848091 L376.833083,90.0598209 L376.72266,89.5465364 L376.453852,89.0215482 L376.025544,88.5327854 L374.240929,86.7488289 L373.83716,86.6630028 L373.59289,86.577734 L373.568352,86.5660304 L373.519833,86.5660304 L373.433948,86.5164296 L373.421679,86.5164296 L373.140602,86.4311609 L370.927679,85.4787142 L370.267371,85.6615126 L370.05991,85.6615126 L370.05991,85.6860344 L369.374506,85.7345206 L363.506467,87.0051925 L360.694583,88.2881253 L357.882698,89.3146945 L357.735467,89.3146945 L357.02664,89.4005206 L356.354063,89.5587972 L356.43939,88.0195008 L356.476198,87.8729277 L356.537544,87.7871016 L356.610602,87.775398 L356.610602,87.6160067 L356.671948,87.2253308 L356.781813,86.7371253 L357.23466,85.3928881 L358.640602,81.8985403 L360.438044,80.884232 L361.97839,79.3571964 L362.22266,79.6012992 L362.674948,79.1615798 L363.310717,78.3919316 L365.193487,75.5212162 L365.315621,75.2765561 L365.376967,75.031896 L365.413775,74.812315 L365.376967,74.5799158 L365.315621,74.3842992 L365.193487,74.1769791 L365.034544,73.9936233 L364.007833,72.1974059 L360.694583,70.9150304 L358.640602,70.6581095 L355.58389,70.9150304 Z M364.215294,93.7743071 L362.22266,96.9749514 L359.923852,100.041841 L359.667313,100.212936 L359.251833,100.555125 L358.933948,100.872236 L358.71366,101.16594 L358.640602,101.312513 L358.066179,101.752232 L358.139237,101.82524 L357.919506,101.886544 L355.070256,104.122481 L354.935852,103.633718 L354.813717,102.595445 L355.00891,102.215916 L355.083083,102.045378 L355.119333,101.886544 L355.143871,101.581137 L355.107063,101.434564 L355.070256,101.312513 L355.889506,97.4514534 L356.060717,96.9387261 L356.427679,96.3150937 L356.721025,96.0096866 L357.063448,95.7410621 L357.246929,95.6435324 L357.66241,95.496402 L358.396333,95.4356549 L358.640602,95.6920186 L362.748563,94.1527221 L362.919775,94.2992953 L363.090429,94.3851213 L363.26164,94.4213466 L363.46966,94.4213466 L363.640871,94.3360779 L363.836621,94.2012083 L364.215294,93.7743071 Z" id="Fill-2"></path>
                <path d="M34.7837712,0.647541107 L34.3917135,0.995861265 L34.1630596,1.33303518 L34.1195596,1.50747391 L34.1089635,1.69250158 L34.1630596,1.866383 L33.9784635,1.866383 L33.6728481,1.94273478 L33.3900981,2.12776245 L33.1285404,2.3891419 L33.0086365,2.55187708 L32.3332712,3.91227628 L30.7432904,8.69011423 L29.6000212,13.9249482 L29.6652712,14.1317111 L29.6435212,14.3602091 L29.545925,14.599296 L29.2843673,14.9481735 L29.2626173,15.1109087 L29.2843673,15.3070826 L29.3819635,15.5244344 L29.2626173,15.7640787 L29.1538673,16.4495727 L29.1427135,16.8853909 L29.0774635,17.3858573 L28.9140596,18.0167348 L28.4673481,21.4230273 L28.2498481,21.5539957 L27.9665404,21.8805806 L27.7813865,22.3375767 L27.7702327,22.3699008 L27.7702327,22.479134 L27.7490404,22.5437822 L27.7378865,22.620134 L27.6943865,22.6747506 L27.6726365,22.7399561 L27.6073865,22.8380431 L27.4986365,22.9032486 L27.4328288,22.9355727 L27.3893288,22.9684542 L27.312925,22.9796004 L27.247675,23.0119245 L27.1277712,23.0119245 L27.1065788,23.0230708 L26.7574635,23.034217 L26.0826558,23.1969522 L25.4725404,23.5346834 L24.884175,24.0457387 L24.601425,24.38347 L24.5250212,24.3182644 L24.3181173,24.2636478 L24.0136173,24.2636478 L23.6539058,24.3182644 L23.4581558,24.38347 L23.2835981,24.4704107 L23.2512519,24.4704107 L23.1748481,24.513881 L23.0437904,24.5467625 L22.9567904,24.5467625 L22.7063865,24.5902328 L22.5100788,24.5902328 L22.5100788,24.6008217 L22.3143288,24.611968 L20.0383865,25.0801103 L19.9078865,25.2216676 L19.8314827,25.2757269 L19.7662327,25.3626676 L19.461175,25.5805767 L19.2760212,25.6457822 L19.1232135,25.6786636 L19.0802712,25.6998415 L18.8839635,25.7438692 L18.4378096,25.7544581 L18.0345981,25.8090747 L17.6966365,25.9071617 L17.4138865,26.0921893 L17.3157327,26.2003079 L12.5351942,27.1148573 L12.4587904,27.1800628 L12.3935404,27.2564146 L12.2301365,27.387383 L12.1319827,27.430296 L12.044425,27.4743237 L11.8380788,27.5718534 L11.7075788,27.5829996 L11.587675,27.6047348 L11.3261173,27.6153237 L11.0316558,27.6047348 L10.9775596,27.5941458 L10.7048481,27.5829996 L7.05698269,28.2573474 L6.76307885,28.5733435 L6.37102115,28.8235767 L6.13177115,28.9328099 L6.05536731,28.9433988 L5.85905962,29.0191933 L5.24894423,29.1718968 L5.10784808,29.0520747 L4.94444423,28.9868692 L4.75929038,28.9539877 L4.56298269,28.9433988 L2.05838654,26.4405095 L-5.57692307e-05,28.2573474 L1.502925,30.2168573 L1.589925,30.3032407 L2.12363654,31.5984344 L2.45044423,32.1211933 L2.84250192,32.5781893 L3.25575192,32.9265095 L3.71361731,33.1873316 L4.214425,33.3729166 L4.78104038,33.4815925 L4.79163654,33.6777664 L4.82454038,33.7647071 L4.86804038,33.8622368 L4.92213654,33.9279996 L5.18369423,34.101881 L5.39059808,34.1670866 L5.66330962,34.2105569 L6.37102115,34.1670866 L6.42511731,34.2545846 L6.50152115,34.3521142 L6.58852115,34.4061735 L6.70898269,34.4502012 L6.96998269,34.4613474 L7.28563654,34.3961419 L7.87344423,34.5154067 L8.20025192,34.6352289 L8.64696346,34.3961419 L8.87561731,34.6352289 L9.34352115,34.667553 L9.84488654,34.6134937 L10.3674442,34.4390549 L10.9340596,34.1670866 L11.6200212,34.6352289 L11.848675,34.3961419 L11.9685788,34.4061735 L12.3171365,34.5154067 L12.5351942,34.6352289 L12.7632904,34.5154067 L13.3293481,34.4061735 L14.1792712,34.3303791 L14.7999827,34.1670866 L15.2137904,34.2545846 L15.2572904,34.2545846 L15.5840981,34.3303791 L15.8997519,34.3738494 L15.9650019,34.3738494 L16.0414058,34.3849957 L16.901925,34.4502012 L17.7618865,34.6352289 L18.2850019,34.3197901 L18.9927135,34.0255292 L19.395925,33.9497348 L19.5810788,33.9497348 L23.2183481,32.5781893 L23.3376942,32.7520708 L23.4140981,32.8172763 L23.5016558,32.861304 L23.5780596,32.8718929 L23.6868096,32.8718929 L23.9048673,32.8066874 L24.818925,32.8066874 L24.601425,34.3961419 L23.6868096,35.7559838 L23.7191558,35.8758059 L23.7409058,36.1366281 L23.7191558,36.2781854 L23.6868096,36.4197427 L23.3276558,37.1381182 L23.0008481,38.0303751 L20.9424058,42.3618059 L18.4378096,45.7792447 L17.9910981,45.5507466 L17.5337904,46.2256518 L17.2939827,46.704383 L16.8478288,47.2371735 L15.2572904,48.5000431 L15.3225404,48.837217 L15.2901942,49.2078296 L15.2461365,49.3817111 L15.0832904,49.7735016 L14.8328865,50.1652921 L14.2662712,50.7961696 L13.2100019,51.6889838 L13.1882519,51.939217 L13.1124058,52.1459798 L12.9813481,52.2981261 L12.8943481,52.3527427 L12.8179442,52.4179482 L12.5781365,52.4725648 L12.4693865,52.4725648 L12.4364827,52.4831538 L12.3171365,52.4937427 L12.1425788,52.4725648 L12.0884827,52.4502723 L11.979175,52.4502723 L11.6200212,52.3744779 L11.587675,52.4073593 L11.5547712,52.4725648 L11.4783673,52.5266241 L11.3913673,52.6464462 L10.7048481,53.2773237 L7.97159808,55.5628613 L8.42946346,55.7807704 L8.35305962,55.8242407 L8.28780962,55.8677111 L8.13500192,55.9440628 L8.03740577,55.9546518 L7.93869423,55.9875332 L7.84109808,55.9986794 L7.75354038,55.9986794 L7.75354038,56.0092684 L7.44904038,56.3029719 L7.40554038,56.4116478 L7.34029038,56.4879996 L7.28563654,56.6518494 L7.28563654,56.7382328 L7.31854038,56.8686439 L7.34029038,56.9232605 L7.40554038,56.988466 L7.44904038,57.0213474 L7.54663654,57.075964 L7.75354038,57.1523158 L8.20025192,56.9232605 L8.32015577,57.0648178 L8.47240577,57.2063751 L8.64696346,57.3261972 L8.86502115,57.4242842 L9.68148269,57.5875767 L10.3891942,57.6199008 L11.848675,57.8378099 L12.9813481,56.9232605 L13.2100019,57.1523158 L13.2211558,57.1523158 L13.2970019,57.1952289 L13.4057519,57.2063751 L13.4933096,57.2063751 L13.6020596,57.1952289 L13.6784635,57.1523158 L13.7548673,57.086553 L13.8965212,56.9232605 L14.342675,57.1523158 L15.0397904,56.9232605 L15.1920404,56.8469087 L15.3013481,56.7711142 L15.3554442,56.7605253 L15.3877904,56.7164976 L15.4970981,56.6407032 L15.6493481,56.5097348 L15.7798481,56.3464423 L15.8239058,56.2700905 L15.8456558,56.2595016 L15.9215019,56.1837071 L16.0090596,55.9986794 L16.0414058,55.9875332 L16.1719058,55.7807704 L16.2154058,55.649802 L16.2918096,55.5082447 L16.6186173,55.0189245 L17.075925,54.4203711 L18.9057135,55.0952763 L18.9386173,55.0952763 L19.1014635,55.1387466 L19.1890212,55.1387466 L19.287175,55.1493356 L19.3630212,55.1387466 L19.439425,55.1387466 L19.504675,55.1164542 L19.5810788,55.0952763 L19.6245788,55.0512486 L19.678675,55.0077783 L19.7115788,54.953719 L19.7227327,54.9314265 L19.7550788,54.9208375 L19.7550788,54.8773672 L19.7879827,54.7904265 L19.7991365,54.7140747 L19.7991365,54.6706043 L19.8203288,54.6488692 L19.8314827,54.398636 L19.9731365,53.6585253 L20.0383865,53.5063791 L20.0601365,52.9947664 L20.3211365,51.9715411 L20.8330981,50.9377269 L21.6060596,49.9150589 L22.085675,49.4140352 L22.3583865,49.0662723 L22.4124827,49.0222447 L22.7063865,48.6198652 L22.9021365,48.2392209 L22.9785404,48.1299877 L23.2183481,47.5966399 L23.1201942,47.3681419 L23.0660981,47.1396439 L23.0549442,46.9105885 L23.1748481,46.4430036 L23.4687519,45.9860075 L23.6868096,45.7792447 L24.818925,44.1792012 L25.1245404,44.016466 L25.3855404,43.7768217 L25.4836942,43.602383 L25.4942904,43.55947 L25.5706942,43.4396478 L25.8322519,42.808213 L26.1802519,42.2966004 L26.4094635,42.0569561 L26.6381173,41.9153988 L28.4673481,39.1734225 L28.4779442,39.0647466 L28.5114058,38.9555134 L28.5766558,38.8574265 L28.7941558,38.6835451 L29.1538673,38.5419877 L29.3819635,38.4985174 L29.480675,38.4879285 L29.8827712,38.3786953 L30.5040404,38.0303751 L30.4822904,37.9651696 L30.4387904,37.9322881 L30.3623865,37.8888178 L30.133175,37.8459047 L29.6000212,37.8130233 L29.480675,37.7366715 L29.2955212,37.5733791 L29.1968096,37.3342921 L29.1427135,37.0617664 L29.1427135,36.8990312 L29.2403096,36.6482407 L29.2514635,36.5724462 L29.3167135,36.3762723 L29.3496173,36.0825688 L29.3496173,35.9956281 L29.3819635,35.7559838 L30.5040404,33.9497348 L30.9719442,32.3602802 L31.6473096,30.532296 L31.8871173,30.314387 L32.1481173,30.1187704 L32.453175,29.9666241 L32.7799827,29.8573909 L33.0086365,30.0753 L34.6097712,29.3898059 L36.1997519,28.2573474 L36.6682135,28.4752565 L36.7546558,28.5733435 L36.8533673,28.6168138 L36.9509635,28.6168138 L37.0491173,28.5950787 L37.1255212,28.5075806 L37.2013673,28.3883158 L37.2342712,28.3013751 L37.3430212,28.0294067 L37.7897327,28.2573474 L38.0289827,27.5829996 L42.1241173,26.2003079 L42.385675,26.0264265 L42.9734827,25.5153711 L43.1803865,25.1776399 L43.2567904,24.840466 L43.3761365,24.7969957 L43.4525404,24.7752605 L43.5177904,24.7312328 L43.6923481,24.6337032 L43.8116942,24.6008217 L43.9098481,24.5250273 L44.0409058,24.4598217 L44.1714058,24.3723237 L44.3236558,24.2959719 L49.4098096,20.9771775 L49.7472135,20.9119719 L50.085175,20.7481221 L50.7711365,20.0626281 L51.1191365,20.1278336 L51.5111942,20.1172447 L51.9144058,20.0191577 L52.774925,19.7254542 L52.9712327,19.6819838 L53.7330404,19.605632 L53.8529442,19.4969561 L53.9505404,19.4094581 L53.9728481,19.4094581 L54.1356942,19.2355767 L54.1909058,19.1269008 L54.2009442,19.0828731 L54.2344058,19.0399601 L54.2450019,18.9418731 L54.2450019,18.8549324 L54.2120981,18.8003158 L54.2009442,18.7462565 L54.1685981,18.6370233 L54.0269442,18.4408494 L53.8094442,18.2129087 L53.5149827,18.0167348 L51.9144058,16.1993395 L46.9046558,13.8051261 L46.3168481,13.4568059 L45.7072904,12.9563395 L45.4674827,12.6838138 L45.2817712,12.4229917 L45.1077712,11.9988771 L45.0860212,11.8790549 L45.5433288,11.4220589 L45.5221365,11.1172091 L45.4457327,10.8340945 L45.140675,10.2684225 L44.6393096,9.70219328 L41.6668096,7.101217 L41.8949058,6.86157273 L41.9283673,6.74230791 L41.9495596,6.63363202 L41.9283673,6.50266364 L41.8949058,6.40457668 L41.8084635,6.27416561 L41.6445019,6.11087312 L41.4487519,5.95872688 L39.3903096,2.32393636 L39.2598096,2.30164387 L39.0311558,2.20411423 L38.9224058,2.1389087 L38.7919058,2.04082174 L38.4756942,1.63788498 L38.4650981,1.56209051 L38.4321942,1.51806285 L38.4210404,1.49688498 L38.1923865,1.24665178 L37.8226365,0.974126087 L37.7897327,0.962979842 L37.1143673,1.63788498 L36.9074635,1.49688498 L36.8204635,1.4205332 L36.7658096,1.34418142 L36.7117135,1.24665178 L36.6682135,1.05047787 L36.6682135,0.962979842 L35.9928481,0.658687352 L35.6002327,0.54945415 L35.0670788,0.495394862 L34.7837712,0.647541107 Z M35.0670788,11.313383 L35.1652327,11.2805016 L35.4591365,11.127798 L35.6442904,10.9756518 L35.7201365,10.9321814 L35.9710981,10.7465964 L35.9928481,10.5292447 L36.0910019,10.3336281 L36.2215019,10.1697783 L36.4278481,10.0505134 L36.6029635,9.82201542 L36.7005596,9.59296008 L36.7117135,9.35387312 L36.7005596,9.33213794 L36.7005596,9.24519723 L36.6682135,9.13652134 L37.3430212,8.46161621 L37.9202327,9.57178221 L38.3122904,10.6819482 L38.4862904,11.7480866 L38.4862904,12.5210787 L38.4756942,12.7824581 L42.1241173,15.9708415 L42.3527712,15.5244344 L44.2584058,16.7438336 L44.4000596,16.8742447 L44.4870596,16.9717743 L44.5634635,17.1027427 L44.6069635,17.2008296 L44.6292712,17.3312407 L45.0860212,17.3312407 L45.0860212,17.5597387 L43.2567904,18.2452328 L43.1151365,18.2452328 L42.8100788,18.3215846 L42.4068673,18.4960233 L41.6668096,18.9201379 L41.1760404,19.0828731 L40.7845404,19.2467229 L40.3924827,19.4752209 L40.1314827,19.703719 L40.065675,19.8346874 L39.8911173,19.7254542 L39.6083673,19.5844542 L39.3791558,19.5186913 L39.2051558,19.5404265 L39.1616558,19.605632 L38.4756942,20.0626281 L38.0289827,19.8346874 L37.7897327,20.1060984 L37.5610788,20.2805372 L37.4305788,20.3240075 L37.3318673,20.3351538 L37.2125212,20.3240075 L37.1143673,20.3022723 L36.6682135,20.0626281 L34.3805596,20.9771775 L35.0670788,17.1133316 L35.0670788,16.8959798 L35.1217327,16.5365134 L35.2193288,16.3191617 L35.3174827,16.2539561 L35.4044827,16.2099285 L35.5243865,16.1993395 L35.9710981,12.107553 L35.6336942,11.7915569 L35.1981365,11.4978534 L34.9365788,11.4220589 L34.838425,11.4220589 L35.0670788,11.313383 Z" id="Fill-3"></path>
                <polygon id="Fill-4" points="31.3969615 37.671466 31.1900577 37.5845253 30.972 38.4985174 33.0086923 39.4019206 35.0671346 39.6304186 37.1144231 39.6304186 37.1796731 39.6738889 37.5611346 39.8589166 38.60625 40.130885 39.9240769 40.685968 40.0657308 40.7729087 40.6100385 40.8492605 41.209 41.142964 41.6663077 41.4478138 42.1241731 41.2304621 42.3528269 41.4478138 42.7013846 41.4912842 42.8865385 41.5241656 43.4960962 41.8178692 44.3783654 42.4164225 44.8027692 42.590304 44.9773269 42.6343316 45.0643269 42.6343316 45.1730769 42.6449206 45.3476346 42.6343316 45.4457885 42.6014502 45.5433846 42.590304 45.5545385 42.7430075 45.5980385 42.8951538 45.6632885 43.0261221 45.7614423 43.1565332 45.8813462 43.2546202 46.04475 43.3521498 46.9482115 43.6787348 47.8198846 44.1792012 47.9174808 44.2232289 48.0373846 44.244964 48.2660385 44.2338178 48.4946923 44.1357308 48.7345 43.9507032 48.8215 44.0816715 48.88675 44.2884344 48.952 44.8652526 51.4571538 46.2256518 51.4789038 46.7913237 51.42425 47.0744383 51.33725 47.357553 51.0215962 47.9232249 50.5419808 48.5000431 48.4946923 50.0889403 48.952 50.3174383 48.7345 50.3174383 48.4946923 50.3826439 48.3747885 50.3826439 48.2660385 50.3720549 48.1355385 50.3391735 48.0373846 50.273968 47.8198846 50.0889403 47.5906731 50.3174383 47.1333654 50.0889403 46.8829615 50.3826439 46.7630577 50.4589957 46.7413077 50.502466 46.6108077 50.600553 46.3821538 50.6980826 46.3386538 50.6980826 46.3386538 50.7092289 46.3169038 50.730964 46.2299038 50.730964 46.2299038 50.7421103 46.1423462 50.7744344 45.9900962 50.7855806 45.9900962 50.7961696 46.0335962 50.8725213 46.04475 50.9811972 46.0335962 50.9811972 46.0335962 51.0681379 45.9900962 51.1662249 45.8155385 51.3295174 45.7502885 51.3512526 45.7067885 51.3512526 45.7067885 51.3623988 45.6850385 51.384134 45.3364808 51.5797506 45.2494808 51.6449561 45.1078269 51.9280708 45.0860769 52.1459798 42.3528269 52.8314739 42.1241731 52.863798 41.9931154 52.9078257 41.7644615 53.0817071 41.5469615 53.3430866 41.4488077 53.5063791 41.3183077 53.4406162 41.209 53.4300273 40.9803462 53.4406162 40.8498462 53.4846439 40.7516923 53.5498494 40.5341923 53.7348771 40.5230385 53.7889364 40.4906923 53.843553 40.4577885 53.8981696 40.4248846 53.9199047 40.4142885 53.9199047 40.4142885 53.9522289 38.9330577 54.8667783 37.7680385 54.9860431 37.3430769 55.0952763 36.7112115 55.1493356 36.4502115 55.2145411 36.1998077 55.3343632 36.047 55.639213 35.85125 55.9005925 35.6008462 56.0856202 35.2846346 56.2377664 35.2193846 56.3358534 35.1870385 56.520881 35.2087885 56.7059087 35.3175385 56.847466 35.4045385 56.9232605 35.6008462 57.0102012 35.8835962 57.086553 36.6677115 57.1517585 37.1690769 57.0430826 37.7897885 56.6947625 37.8550385 56.6947625 37.9531923 56.7059087 38.9330577 56.9232605 39.1617115 56.4774107 39.4015192 56.5532051 39.6736731 56.5749403 39.9675769 56.5532051 40.3055385 56.4774107 40.5447885 56.3575885 40.8169423 56.292383 41.4488077 56.2377664 41.5034615 56.1179443 41.7103654 55.8788573 42.0583654 55.6503593 42.8101346 55.3343632 43.2568462 55.7807704 43.4855 55.3343632 43.9534038 55.7807704 44.4001154 55.3343632 44.6287692 55.7807704 44.6287692 55.7696241 44.7157692 55.7696241 44.8245192 55.7373 44.8574231 55.7155648 44.9120769 55.7044186 45.0208269 55.6609482 45.1730769 55.508802 45.2059808 55.4324502 45.2388846 55.421304 45.3147308 55.3343632 45.7614423 55.7807704 45.9900962 55.3343632 46.4474038 55.7807704 48.2660385 54.8667783 48.7345 55.0952763 50.9998462 54.4203711 50.9886923 54.300549 50.9234423 54.0937862 50.8905385 54.0174344 50.7382885 53.8541419 50.6401346 53.7889364 50.5419808 53.7348771 50.6295385 53.6150549 50.6947885 53.4846439 50.6947885 53.3648217 50.7053846 53.3430866 50.7053846 53.2121182 50.6618846 53.0599719 50.6183846 52.9836202 50.5966346 52.9401498 50.5860385 52.9184146 50.4661346 52.7445332 50.3244808 52.5918296 50.2698269 52.4720075 50.2592308 52.3633316 50.2698269 52.2329206 50.3791346 52.0044225 50.4767308 51.9063356 50.5313846 51.84113 50.7711923 51.6884265 50.8252885 51.7865134 50.9016923 51.9063356 51.3701538 52.3633316 52.8184808 53.5063791 55.5517308 52.8314739 56.0201923 53.277881 58.7534423 51.3295174 59.0255962 50.9923435 59.08025 50.8073158 59.0914038 50.6546123 59.0473462 50.4807308 58.9715 50.3174383 58.7534423 50.04547 58.5576923 49.6971498 58.2961346 48.7285411 55.5517308 45.3111024 53.5150385 43.7222051 51.2285 42.1333079 51.0974423 42.1115727 51.0650962 42.1009838 50.9780962 42.1009838 50.7053846 42.0681024 50.4114808 42.0028968 50.0958269 41.9159561 49.8342692 41.9482802 49.7578654 41.9376913 49.6926154 41.9376913 49.5621154 41.8942209 49.3005577 41.7309285 49.2682115 41.7197822 49.1812115 41.6545767 48.952 41.4478138 48.7015962 41.142964 48.5599423 41.0231419 48.2771923 40.8492605 47.9721346 40.7729087 47.8198846 40.7729087 45.3147308 39.8589166 44.4653654 39.6850352 43.76825 39.4565372 43.2021923 39.1299522 42.9841346 38.9337783 42.8101346 38.7270154 42.3528269 39.1734225 42.1241731 38.7270154 41.6663077 39.1734225 40.3055385 38.4985174 40.1744808 38.4879285 39.7171731 38.3786953 38.9330577 38.0303751 38.8566538 38.0961379 38.8243077 38.1178731 38.7914038 38.1613435 38.6609038 38.2588731 38.4863462 38.3134897 38.3123462 38.3134897 38.0942885 38.2588731 37.8550385 38.1613435 37.3430769 37.8130233 37.2666731 37.899964 37.1908269 37.9651696 37.1361731 37.9763158 37.1032692 38.0086399 36.9945192 38.0303751 36.8640192 38.0086399 36.5918654 37.899964 36.4284615 37.8130233 36.3520577 37.7478178 36.1886538 37.7043474 35.96 37.7043474 35.6766923 37.7478178 35.5244423 37.8130233 32.7800385 37.5845253 32.5402308 37.6062605 32.1810769 37.7043474 31.8871731 37.8130233 31.8107692 37.8018771 31.7778654 37.7912881 31.7455192 37.7912881 31.6691154 37.7584067 31.5927115 37.7478178 31.4081154 37.671466"></polygon>
                <polygon id="Fill-5" points="165.253544 81.7082182 164.992544 81.9818585 164.730987 82.3547004 164.495083 82.814483 164.18389 84.6407953 164.084621 84.9266964 163.997621 85.0760561 163.636794 85.5480996 163.114794 86.0452221 161.88341 86.9770482 162.14441 87.7600719 159.806563 91.1279099 159.682198 91.1279099 159.470833 91.1903289 159.408929 91.2644514 159.346467 91.3268704 159.284563 91.5258308 159.284563 91.6623723 159.197563 91.6997123 159.122833 91.7615739 159.035833 91.786653 158.948833 91.8362538 158.824467 91.8485146 158.72464 91.8858545 158.613102 91.8986727 158.501006 91.8986727 158.501006 91.9109336 158.351544 92.0602933 158.102813 92.5819375 157.991275 92.9547794 157.904275 93.0043802 157.742544 93.2033407 157.655544 93.3276213 157.531179 93.4641628 157.02089 94.2221075 156.958987 94.2722656 156.921621 94.3341273 156.797256 94.446147 156.51116 94.6077676 156.42416 94.6322893 156.374525 94.6322893 156.374525 94.6573684 156.349429 94.6818901 156.175429 94.7693881 155.976333 95.117151 155.703063 95.415313 155.516237 95.5273328 155.454333 95.5518545 155.317698 95.6387953 154.384679 95.9375146 153.849852 96.2228585 153.638487 96.4591589 153.564313 96.5834395 153.514121 96.7077202 153.452217 96.8069217 153.414852 96.8693407 153.377487 96.9562814 153.215756 97.2048427 153.17839 97.3168625 150.96491 101.020202 150.903006 101.020202 150.86564 101.044724 150.803179 101.069803 150.753544 101.131665 150.666544 101.194084 150.504813 101.393044 150.430083 101.529586 150.318544 101.641606 149.833352 102.349949 149.410621 103.082815 149.783717 103.132416 150.169083 103.008135 150.554448 102.735052 150.96491 102.312609 151.313467 102.026708 151.686563 101.852827 152.133833 101.740807 152.358025 101.715728 152.66866 101.753068 152.780756 101.790408 152.92966 101.778147 152.954756 101.765886 153.09139 101.765886 153.215756 101.740807 153.365217 101.715728 153.638487 101.628787 153.837583 101.529586 153.887217 101.529586 154.086313 101.367965 154.27314 101.194084 154.347313 101.069803 154.434313 100.970044 154.509044 100.858582 154.596044 100.746562 154.79514 100.734301 154.994237 100.696961 155.442063 100.547602 156.42416 99.9763565 156.660621 99.7896569 157.108448 99.4914949 157.506083 99.2802735 157.841813 99.1933328 157.991275 99.1933328 158.078275 98.9447715 158.264544 98.7335502 158.513275 98.5345897 159.073198 98.3356292 159.81939 98.2113486 161.099852 98.1617478 162.915698 97.117902 163.960256 95.813234 164.246352 95.7385542 164.544717 95.5518545 164.892717 95.2040917 165.265813 94.7693881 165.328275 94.6818901 165.514544 94.5208269 165.651737 94.446147 165.788371 94.3341273 166.310371 93.9863644 169.158506 90.3577043 170.377063 89.4504 170.849429 88.9783565 171.222525 88.5430957 171.496352 88.0710522 171.682621 87.6235304 171.769621 87.1637478 171.782448 86.9274474 171.757352 86.3433842 171.707717 86.0207004 171.558256 85.4862379 171.446717 85.2621984 171.309525 85.1005779 171.147794 84.9762972 170.973794 84.9021747 170.82489 84.8770957 170.73789 84.8397557 170.712794 84.8274949 170.675429 84.8274949 170.314602 84.6407953 169.991698 84.392234 169.419506 83.8583289 169.332506 83.7089692 169.096044 83.448147 168.772583 83.1873249 168.126217 82.814483 167.989583 82.8640838 167.840121 82.8763447 167.753121 82.8640838 167.67839 82.8640838 167.529487 82.814483 167.218294 82.6277834 167.193756 82.6155225 166.82066 82.3045423 165.514544 81.5220759 165.37791 81.5961984"></polygon>
                <polygon id="Fill-6" points="186.381662 82.602983 186.0582 82.3048209 181.905065 82.3048209 181.6937 82.1682794 181.469508 82.1058605 181.233046 82.0562597 180.711046 82.0562597 180.138854 82.1682794 179.828219 82.3048209 179.753488 82.6525838 179.567219 82.9507458 179.405488 83.0627656 179.318488 83.1123664 179.218662 83.1747854 178.584565 83.4105285 178.261104 83.5972281 177.987835 83.8580502 177.801008 84.1812913 177.739104 84.3925126 177.664373 84.4421134 177.639277 84.5914731 177.664373 84.6906747 177.714008 84.8026945 177.788738 84.9147142 178.000104 85.1627182 177.739104 85.4240976 178.783662 86.4551253 181.382508 85.6726589 181.444969 85.7969395 181.519142 85.8961411 181.705969 86.0700225 181.905065 86.1569632 182.029431 86.1943032 182.290431 86.2193822 182.4767 86.268983 182.936796 86.4551253 184.752642 86.9773269 186.332027 88.269734 186.506027 88.1950542 186.829488 88.1705324 186.966123 88.1950542 187.090488 88.2446549 187.189758 88.3193348 187.276758 88.4062755 187.364315 88.5433743 187.364315 88.6548368 187.401123 88.7919356 187.488681 89.0527577 187.649854 89.3135798 187.886315 89.574402 187.911412 89.6245601 187.973315 89.6864217 188.160142 89.7856233 188.794238 89.9600621 191.007719 90.0966036 191.069623 90.2086233 191.206815 90.3947656 191.318354 90.4817063 191.530277 90.5814652 191.654085 90.605987 191.791277 90.6182478 192.139277 90.7553466 192.549738 91.0284296 192.649008 91.1527103 192.823565 91.4012715 194.377854 92.7064968 199.837104 96.0737775 199.837104 96.235398 199.924104 96.5335601 200.0362 96.6455798 200.272104 96.7949395 200.433835 96.8322794 200.620662 96.8568012 201.926219 97.627564 203.219508 98.932232 204.786623 99.7152557 204.935527 99.6656549 205.196527 99.6405759 205.333719 99.6528368 205.420719 99.6528368 205.594719 99.7152557 205.681719 99.7648565 205.780988 99.8768763 205.84345 100.038497 205.84345 100.2369 205.818354 100.485461 205.905354 100.609742 205.955546 100.647082 206.067085 100.709501 206.589642 100.883382 208.430027 101.019924 208.504758 101.181544 208.604027 101.318086 208.728392 101.430106 208.927488 101.529307 209.126585 101.579465 209.660854 101.579465 209.810315 101.542125 209.984315 101.529307 210.171142 101.690928 210.382508 101.802947 210.581604 101.877627 210.817508 101.914967 211.0417 101.877627 211.290431 101.802947 211.539162 101.690928 212.272527 101.181544 212.869258 100.846042 213.205546 100.746841 213.35445 100.746841 215.170296 98.6714099 216.997854 97.3661846 221.163815 93.4767024 221.524642 93.4393625 221.798469 93.3646826 221.810738 93.3524217 221.897738 93.3524217 222.245738 93.1662794 222.320469 93.1161213 222.407469 93.0665206 222.581469 92.9550581 222.805662 92.7187577 222.892662 92.6440779 223.203296 92.296315 223.763219 91.4012715 219.845988 91.1281885 219.845988 91.239651 219.820892 91.3516708 219.796354 91.4508723 219.783527 91.4508723 219.783527 91.5628921 219.758988 91.5879711 219.733892 91.5879711 219.733892 91.6375719 219.709354 91.6620937 219.696527 91.6620937 219.696527 91.6994336 219.609527 91.7863743 219.597258 91.7863743 219.597258 91.8365324 219.510258 91.8610542 219.460623 91.8610542 219.460623 91.8861332 219.435527 91.9106549 219.348527 91.9234731 219.249258 91.9479949 219.137162 91.935734 219.037335 91.935734 218.912969 91.9234731 218.863335 91.9106549 216.997854 91.9106549 216.910854 91.7741134 216.799315 91.6749119 216.67495 91.575153 216.537758 91.5132913 216.351488 91.4508723 215.941027 91.4012715 215.704565 91.4012715 213.09345 91.1281885 207.6342 90.0966036 204.786623 89.0650186 202.17495 88.5433743 199.837104 87.2509672 197.499258 86.4551253 197.213162 86.0700225 196.6287 85.4859593 196.466969 85.3744968 195.981777 85.1008565 195.633777 84.9888368 195.260681 84.9147142 194.899854 84.901896 190.211892 82.8142043 187.613046 83.0878447 187.600219 83.0131648 187.562854 82.9507458 187.488681 82.9011451 187.41395 82.8766233 187.289585 82.8515443 186.841758 82.8142043 186.754758 82.8019435 186.506027 82.6899237"></polygon>
                <polygon id="Fill-7" points="187.836625 97.9628988 187.177433 98.0498395 186.841702 98.1618593 186.369337 97.9255589 185.647683 97.6892585 184.951683 97.6273968 184.454221 97.6524759 183.682933 97.8135391 182.93674 98.1618593 180.337894 98.1618593 180.238625 98.0871794 180.11426 98.0247605 179.94026 97.9751597 179.492433 97.9255589 178.522606 97.888219 171.24751 98.6712427 171.259779 99.0318237 171.371875 99.553468 171.521337 99.8767091 171.707606 100.16261 171.831971 100.311413 172.416433 100.796274 172.801798 101.019757 174.878644 102.834365 174.530644 103.319227 174.194913 104.002492 174.107913 104.437195 174.107913 104.648417 174.020913 104.785515 173.423625 106.139784 173.324356 106.475286 171.24751 107.49461 171.023875 108.177875 170.924048 108.401915 170.252587 109.32148 169.233125 110.228227 167.865106 111.135531 167.715644 111.08593 167.442375 111.060851 167.14401 111.07367 166.845087 111.135531 166.696183 111.19795 166.522183 111.23529 165.813356 111.557974 165.26626 111.930816 165.253433 111.955895 165.253433 112.005496 165.241163 112.092436 165.178702 112.254057 164.929971 112.502618 164.830702 112.527697 164.743702 112.577298 164.569702 112.614638 164.520067 112.63916 164.445337 112.63916 164.25851 112.689318 163.960144 112.701579 163.699144 112.76344 163.276413 112.98748 162.952952 113.310164 162.729317 113.733164 162.654587 113.993986 162.654587 114.777009 162.778952 114.814349 162.903317 114.838871 163.176587 114.82661 163.438144 114.714591 163.699144 114.51563 163.711413 114.565788 163.798413 114.62765 164.15924 114.70233 165.514433 114.777009 167.865106 113.745425 168.051375 113.782764 168.474106 113.807286 168.698298 113.782764 169.419394 113.583804 169.680394 113.484602 169.916856 113.347504 170.376952 113.185883 170.762317 113.11176 171.098048 113.1491 171.24751 113.210962 171.67024 112.788519 171.93124 112.589559 172.155433 112.465278 172.266971 112.440757 172.341702 112.390598 172.503433 112.390598 172.590433 112.427938 172.640067 112.453017 172.69026 112.527697 172.801798 112.701579 172.888798 112.664239 172.93899 112.614638 173.02599 112.577298 173.12526 112.477539 173.510625 112.179377 175.139644 110.626148 178.547144 108.351757 178.609606 108.277634 178.683779 108.215215 178.808144 108.066413 178.83324 108.016255 179.032337 107.693571 179.218606 107.233788 179.467337 106.003243 179.567163 104.387594 179.529798 104.139033 179.455067 103.915551 179.330702 103.728851 179.168971 103.59231 179.044606 103.51763 178.945337 103.48029 178.683779 103.406168 177.751317 103.319227 177.552221 103.269069 177.39049 103.182128 177.291221 103.082926 177.229317 102.995986 177.166856 102.834365 177.166856 102.747425 177.154587 102.623144 177.179125 102.411923 177.229317 102.312164 179.828163 100.746674 180.337894 101.019757 180.400356 101.057096 180.46226 101.069915 180.511894 101.069915 180.598894 101.057096 180.661356 101.019757 180.872721 100.746674 181.133721 100.771195 181.780644 100.883215 182.15374 101.019757 182.60101 100.784013 183.247933 100.547713 183.907125 100.485851 184.516125 100.547713 184.926587 100.684255 185.548413 101.019757 185.697875 101.032575 186.020779 101.144037 188.39599 102.573543 188.421087 102.822104 188.533183 103.082926 188.694913 103.343749 188.918548 103.617389 189.702106 104.648417 189.564913 105.121017 189.440548 106.065104 189.440548 106.202203 188.39599 107.49461 188.508087 107.556472 188.620183 107.631152 188.794183 107.817851 188.881183 108.041334 188.906279 108.153353 188.918548 108.289895 188.906279 108.289895 188.906279 108.389096 188.881183 108.476037 188.856087 108.513377 188.831548 108.513377 188.831548 108.550717 188.806452 108.562978 188.794183 108.600318 188.707183 108.613136 188.620183 108.613136 188.39599 108.538456 186.667702 113.074421 186.444067 113.534203 185.560683 114.913551 185.137952 115.323733 184.752587 115.559476 182.203375 118.964654 181.99201 119.200954 181.780644 119.374836 181.569279 119.511377 181.084087 119.598318 180.835356 119.536456 180.598894 119.449515 179.119337 120.17012 177.863413 120.542962 177.291221 120.592563 176.79376 120.568041 176.321394 120.430942 175.923202 120.2448 175.774298 120.331741 175.687298 120.35682 175.649933 120.35682 175.649933 120.369081 175.612567 120.406421 175.26401 120.418681 175.052644 120.35682 174.854106 120.269322 174.841279 120.269322 174.368913 119.97116 174.157548 119.785017 173.747087 119.524195 173.37399 119.387096 173.174894 119.374836 172.975798 119.387096 172.801798 119.449515 172.366798 118.952393 171.918971 118.554472 171.657971 118.380591 171.123144 118.094689 170.538683 117.908547 169.904587 117.808788 168.884567 117.796527 168.126106 117.896286 168.126106 120.2448 169.158394 121.015006 170.463952 121.798029 171.098048 122.046591 172.018798 122.307413 172.080702 122.481851 172.167702 122.655733 172.266971 122.804535 172.528529 123.065915 172.69026 123.177377 173.399087 123.525697 174.045452 123.98548 174.281913 124.246302 174.368913 124.395662 174.381183 124.681006 174.406279 124.818104 174.530644 125.053847 174.617644 125.165867 174.81674 125.352567 175.052644 125.489108 175.376106 125.613389 177.502587 125.74993 178.14951 125.874211 178.621875 126.073172 178.783606 126.209713 181.382452 125.426689 182.949567 125.041587 184.30476 124.370583 185.411779 123.463278 186.108337 122.618393 186.145144 122.531452 186.331971 122.307413 186.505971 122.295152 186.705067 122.245551 187.102702 122.109009 187.314067 121.984729 187.935894 121.537207 188.806452 120.542962 189.702106 119.200954 193.60651 111.396353 193.43251 111.23529 193.357779 111.148349 193.308144 111.07367 193.270779 110.973911 193.25851 110.88697 193.283606 110.551468 193.51951 110.017006 193.718606 109.731662 193.85524 109.582302 193.781067 107.556472 193.706337 106.985227 193.643875 106.810788 193.60651 106.723847 193.85524 106.202203 193.60651 103.082926 193.50724 102.623144 193.357779 102.212962 193.146413 101.827859 192.561952 101.094436 191.741587 100.473033 191.256394 100.224472 190.610029 99.2553059 190.137106 98.7581834 189.627375 98.4104206 189.06801 98.1367802 188.470721 98.0002387"></polygon>
                <path d="M122.439785,39.2875601 L122.461535,39.3527656 L122.244035,39.3527656 L122.439785,39.2875601 L122.244035,38.8957696 L122.439785,38.9069158 L122.636092,38.9392399 L122.788342,39.0044455 L122.929996,39.1242676 L122.439785,39.2875601 Z M89.2347846,49.3542913 L90.8247654,47.7653941 L91.7399385,52.0968249 L89.6814962,52.543232 L89.4528423,52.6190265 L89.2241885,52.6624968 L89.0936885,52.6519079 L88.9843808,52.6190265 L88.9302846,52.5972913 L88.8756308,52.5867024 L88.7668808,52.543232 L87.8082077,52.7059672 L87.1769,52.77173 L89.2347846,49.3542913 Z M98.1104577,41.9102715 L98.2521115,41.8562123 L98.3285154,41.8562123 L96.5204769,46.4049949 L96.3353231,46.3397893 L96.0525731,46.2851727 L95.8239192,46.2851727 L95.6605154,46.3397893 L95.6058615,46.4049949 L95.6605154,45.2078881 L95.7581115,44.6422162 L95.9432654,44.2504257 L96.0525731,44.1306036 L96.0743231,44.0436628 L96.0960731,43.9779 L96.1501692,43.9238407 L96.1942269,43.8369 L96.2812269,43.7605482 L96.3570731,43.6624613 L96.4552269,43.5537854 L96.5422269,43.422817 L97.4462462,42.4870897 L97.65315,42.3132083 L97.7513038,42.1933862 L97.9476115,42.0189474 L98.0452077,41.9648881 L98.1104577,41.9102715 Z M97.1958423,35.7068289 L97.3045923,35.9899435 L97.3704,36.0986194 L97.5114962,36.2401767 L97.6860538,36.3711451 L97.8929577,36.4686747 L98.1433615,36.5450265 L98.7311692,36.6213783 L99.0144769,36.3928802 L98.7969769,36.6213783 L98.7311692,36.6213783 L96.7385346,38.2102755 L97.1958423,35.7068289 Z M94.2556885,22.3318921 L94.2556885,22.5715364 L94.2121885,22.8000344 L94.1140346,22.9850621 L94.1140346,23.0173862 L93.9723808,23.2024138 L93.8853808,23.2787656 L93.8089769,23.3657063 L93.7437269,23.3985877 L93.5909192,23.5072636 L93.4604192,23.5724692 L91.5112846,24.7913111 L91.4677846,24.4758723 L91.3913808,24.2144929 L91.3149769,24.0952281 L91.2391308,24.00773 L91.1515731,23.9319356 L91.0428231,23.877319 L90.6942654,23.3333822 L90.6178615,23.0720028 L90.5961115,22.8435047 L90.6178615,22.6150067 L90.6942654,22.4188328 L90.8359192,22.2232162 L91.0428231,22.0599237 L90.9123231,21.9072202 L90.5091115,21.1459316 L90.1605538,20.1332953 L89.6814962,17.7390818 L90.6619192,18.1526075 L91.4460346,18.5884257 L91.8380923,18.870983 L91.9791885,19.0019514 L92.23015,19.2845087 L92.3824,19.5676233 L92.4259,19.7197696 L92.4370538,19.8613269 L92.4259,20.0140304 L92.40415,20.0140304 L92.40415,20.1009711 L92.3929962,20.209647 L92.3712462,20.2965877 L92.36065,20.4058209 L92.2842462,20.5579672 L92.23015,20.6231727 L92.1860923,20.6995245 L92.1860923,21.3744296 L91.9574385,21.4396352 L91.5871308,21.6352518 L91.3043808,21.9183664 L91.1080731,22.2884217 L91.0428231,22.5169198 L91.5112846,22.5169198 L91.7616885,22.5498012 L92.0120923,22.5603901 L92.1102462,22.5498012 L92.2189962,22.5498012 L92.3059962,22.5169198 L92.40415,22.5057735 L92.4694,22.4517142 L92.5458038,22.4188328 L92.6110538,22.3647735 L92.6874577,22.3318921 L92.6874577,22.2884217 L92.7092077,22.2884217 L92.7309577,22.2666866 L92.7850538,22.201481 L92.8179577,22.1251292 L92.8726115,22.0599237 L94.2339385,22.0599237 L94.2445346,22.1903348 L94.2445346,22.2449514 L94.2556885,22.3318921 Z M106.757477,36.1749711 L106.572323,36.2730581 L106.507073,36.3271174 L106.463573,36.3928802 L106.452977,36.4904099 L106.463573,36.5450265 L106.528823,36.6213783 L107.214785,37.0672281 L106.997285,37.5353704 L107.214785,37.7638684 L107.214785,37.9817775 L107.345842,38.1885403 L107.509246,38.3953032 L107.9554,38.7759474 L108.228112,38.928651 L108.881169,39.2223545 L109.273227,39.3527656 L109.371381,39.4943229 L109.501881,39.624734 L109.774035,39.8097617 L109.915688,39.8426431 L110.068496,39.853232 L110.220746,39.8426431 L110.395304,39.8097617 L110.602208,39.8097617 L111.004862,39.853232 L111.353419,39.9730542 L111.647323,40.1474929 L111.778381,40.2667577 L114.958342,41.8562123 L114.413477,43.1185245 L113.705765,44.1846628 L112.8129,45.0445957 L111.778381,45.7300897 L111.309919,45.9479988 L111.778381,46.4049949 L111.538573,46.4161411 L111.309919,46.4702004 L111.081265,46.5571411 L110.612804,46.8402557 L110.155496,47.2649277 L109.948592,47.536896 L109.719938,47.536896 L109.611188,47.6238368 L109.523631,47.7325126 L109.316727,47.8852162 L109.099227,47.9833032 L108.859419,48.0373625 L108.587265,48.0373625 L108.303958,47.9938921 L107.9989,47.8958051 L107.923054,47.8523348 L107.901304,47.8523348 L107.67265,47.7653941 L105.614208,46.6334929 L104.938842,46.6334929 L104.710188,46.4484652 L104.470938,46.3397893 L104.241727,46.3286431 L104.132977,46.3397893 L104.024227,46.4049949 L103.109612,46.4049949 L102.477746,46.7421688 L102.085688,46.8402557 L101.976938,46.851402 L101.541381,46.753315 L100.615612,46.6334929 L101.072919,45.2625047 L102.216188,44.1306036 L102.227342,44.2392794 L102.259688,44.3479553 L102.325496,44.4571885 L102.434246,44.5875996 L102.6629,44.3479553 L102.761054,43.8586352 L102.782804,43.7170779 L102.739304,43.4556984 L102.6629,43.2160542 L103.348862,43.2160542 L103.806169,42.7590581 L103.022054,41.6488921 L102.891554,41.3986589 L101.748285,40.2667577 L101.748285,40.1363466 L101.802381,39.8643783 L101.867631,39.7445561 L101.922285,39.5812636 L102.096842,39.2764138 L102.216188,39.1242676 L102.59765,38.8957696 L102.8804,38.6672715 L103.043804,38.4276273 L103.109612,38.2102755 L103.348862,38.2102755 L106.757477,35.4783308 L109.948592,32.5184455 L113.585862,29.569149 L114.271823,32.0720383 L114.424631,32.8015601 L114.663881,33.4324375 L114.805535,33.693817 L115.175842,34.150813 L115.41565,34.3464296 L116.558919,34.3464296 L116.755227,34.3904573 L116.798727,34.3904573 L117.114381,34.4445166 L117.234285,34.4445166 L117.288381,34.4662518 L117.343035,34.4445166 L117.397688,34.4445166 L117.517592,34.4227814 L117.561092,34.4010462 L117.604592,34.3904573 L117.680438,34.3464296 L117.462938,37.0672281 L115.175842,36.6213783 L114.914285,36.6537024 L114.446381,36.6537024 L114.271823,36.6213783 L114.097823,36.5344375 L113.989073,36.4363506 L113.923265,36.3711451 L113.879765,36.3165285 L113.814515,36.1749711 L106.757477,36.1749711 Z M112.8999,1.80663913 L112.79115,2.08975375 L112.8129,2.28537036 L112.8999,2.50327945 L113.248458,3.00374585 L113.357208,3.45015296 L113.422458,4.14623597 L113.585862,4.77767075 L113.967323,5.02790395 L114.271823,5.38737036 L114.359381,5.58298696 L114.435227,5.82263123 L114.500477,6.36656798 L114.500477,8.40187233 L113.585862,19.3391253 L113.749265,19.4478012 L113.749265,19.7961213 L113.585862,20.0140304 L113.585862,22.2884217 L113.019804,22.767153 L112.017631,23.9319356 L111.843631,24.3125798 L111.778381,24.562813 L110.417054,26.4454138 L108.108208,29.014066 L103.806169,32.9865877 L103.348862,32.7575324 L103.806169,32.5184455 L103.642765,32.1807142 L103.228958,31.5821609 L102.717554,31.0711055 L102.096842,30.6464336 L100.942419,30.1782913 L99.5375923,29.8739988 L97.8818038,29.797647 L97.6208038,29.3729751 L97.56615,29.0358012 L97.5879,28.6334217 L97.65315,28.4261016 L97.8818038,27.2947577 L98.1104577,27.2289949 L98.3831692,27.0662597 L99.0144769,26.3802083 L99.2325346,25.9884178 L99.4611885,25.7058605 L99.7444962,25.4010107 L99.92965,25.2377182 L99.92965,24.7913111 L98.8622269,23.2893545 L98.5789192,22.7130937 L98.4807654,22.3865087 L98.4590154,22.1251292 L98.5025154,21.9072202 L98.6224192,21.4936945 L98.8187269,20.9826391 L99.1014769,20.6449079 L99.2866308,20.5473783 L99.7115923,20.4598802 L100.23415,19.981149 L100.822515,19.2193032 L102.205592,16.8797063 L105.614208,8.86945731 L103.806169,7.04147312 L103.642765,6.84529921 L103.305362,6.51871423 L102.924458,6.27962727 L102.477746,6.10518854 L101.998688,6.02939407 L101.453823,6.01824783 L100.572112,6.17095138 L99.92965,6.36656798 L99.8097462,6.22501067 L99.6680923,5.92016087 L99.6134385,5.51778142 L99.6463423,5.0390502 L99.7879962,4.27720435 L99.8203423,3.79847312 L99.7444962,2.94912925 L99.6351885,2.5467498 L99.4717846,2.20957589 L99.2648808,1.88299091 L99.0144769,1.58928735 L98.6224192,1.61102253 L98.2197654,1.57814111 L98.0234577,1.50178933 L97.7842077,1.40425968 L97.1958423,1.12114506 L96.0525731,1.12114506 L95.8345154,1.44773004 L95.5188615,2.0462834 L95.4318615,2.31825178 L95.3225538,2.66657194 L95.3225538,2.99315692 L95.3772077,3.17818458 L94.2339385,4.99557984 L94.1246308,5.18060751 L94.0811308,5.60472213 L94.1140346,5.96418854 L94.5278423,7.44385257 L94.9304962,8.40187233 L91.0428231,9.31586443 L90.8905731,9.51203834 L90.6942654,9.66418458 L90.4438615,9.74053636 L90.0189,9.8057419 L89.7902462,10.0230937 L89.6814962,10.2298565 L89.4528423,10.0013585 L87.6448038,10.2298565 L88.7668808,12.5048051 L88.8538808,12.711568 L89.0825346,13.1033585 L89.3658423,13.4405324 L89.69265,13.734236 L90.0953038,13.962734 L90.8141692,14.2129672 L91.9574385,14.3222004 L92.5893038,14.0284968 L92.9813615,13.9192636 L93.3622654,13.8652043 L95.1485538,13.8652043 L94.9522462,14.5072281 L94.9634,14.8772834 L95.0069,15.0946352 L95.0939,15.301398 L95.2138038,15.4975719 L95.3772077,15.6931885 L93.4386692,17.2820858 L93.2535154,17.4130542 L92.8832077,17.7284929 L92.6657077,17.9135206 L91.4237269,16.6946787 L90.6619192,15.529896 L90.1499577,14.3222004 L89.9319,14.3874059 L89.6597462,14.27873 L89.3005923,13.9844692 L89.1042846,13.9192636 L88.5488231,13.8652043 L88.2114192,13.9409988 L87.9063615,14.0719672 L87.6448038,14.2458486 L87.3944,14.4960818 L87.0787462,14.9207538 L86.9047462,15.2796628 L86.7301885,15.9216866 L86.2617269,19.3391253 L87.1769,23.4203229 L87.1769,23.6488209 L88.3201692,26.1517103 L79.2158423,29.797647 L77.6152654,30.7010502 L76.0252846,31.3976905 L75.7960731,31.3976905 L75.5568231,31.3319277 L75.3387654,31.6150423 L74.9143615,31.5169553 L74.5875538,31.5821609 L74.1843423,31.7237182 L73.9774385,31.8435403 L73.5418808,31.9739514 L73.3349769,31.9739514 L73.0081692,31.8652755 L72.7254192,31.5821609 L72.6055154,31.3976905 L72.3768615,31.3213387 L72.1482077,31.3319277 L71.9084,31.4194257 L71.7014962,31.6150423 L71.6579962,31.789481 L71.5274962,32.0614494 L71.3094385,32.2899474 L71.0155346,32.5184455 L71.7014962,32.9865877 L71.4510923,33.1933506 L71.3858423,33.4218486 L71.4075923,33.7044059 L71.4728423,33.8894336 L73.7487846,37.9817775 L74.33715,38.2102755 L74.6528038,38.2643348 L74.9902077,38.2643348 L75.3387654,38.2102755 L75.7202269,38.1121885 L76.4825923,37.7638684 L76.8634962,37.5465166 L78.0396692,37.0020225 L78.4752269,36.9039356 L78.9760346,36.8498763 L84.6717462,33.2039395 L84.9004,33.6720818 L87.4055538,32.0720383 L89.91015,30.9295482 L89.95365,31.3648091 L89.8560538,31.8329514 L89.6050923,32.2899474 L87.6448038,34.575485 L87.6448038,37.9817775 L89.0061308,39.8097617 L91.7399385,38.4387735 L91.8815923,38.8088289 L91.8921885,39.2223545 L91.7616885,39.712232 L91.5112846,40.2667577 L91.5112846,42.073564 L83.3104192,49.8224336 L83.3104192,50.0397854 L81.94965,52.0968249 L81.0344769,54.1321292 L81.3177846,54.2954217 L81.5352846,54.5345087 L81.6663423,54.8610937 L81.6986885,55.0461213 L81.7204385,55.2746194 L81.7644962,55.4813822 L81.9055923,55.8402913 L82.08015,56.1234059 L82.2870538,56.3301688 L85.3688615,57.1031609 L85.5869192,57.2881885 L85.8373231,57.4403348 L86.0988808,57.5166866 L86.3816308,57.5490107 L86.9699962,57.4403348 L87.6448038,57.1031609 L91.2826308,56.8746628 L92.4259,56.4065206 L93.2970154,56.5151964 L94.1140346,56.3630502 L94.8869962,55.9495245 L95.6058615,55.2746194 L97.4244962,52.3141767 L97.4244962,52.0968249 L98.5683231,51.1828328 L106.082669,52.0968249 L109.033977,50.7252794 L113.792765,49.8224336 L114.522227,49.767817 L114.849035,49.7789632 L116.090458,49.1257933 L116.319669,48.8426787 L116.558919,48.4508881 L119.063515,46.851402 L121.100208,44.3479553 L124.291323,45.0445957 L128.157246,46.851402 L128.375304,46.763904 L128.603958,46.7421688 L128.843208,46.763904 L129.573227,47.0252834 L130.215688,47.0904889 L130.661842,47.1885759 L131.457112,47.4170739 L131.936169,47.5257498 L132.132477,47.8200107 L132.306477,48.0702439 L132.480477,48.2118012 L132.655035,48.3093308 L132.872535,48.3856826 L133.406246,48.4508881 L134.767573,48.9078842 L135.029131,48.9407656 L135.377688,48.8972953 L135.573438,48.7557379 L135.9114,48.4508881 L136.118304,48.0267735 L136.346958,47.6890423 L136.804265,47.0904889 L137.413823,46.9271964 L137.653631,46.8402557 L137.882285,46.7421688 L138.209092,46.4813466 L138.404842,46.1764968 L138.197938,45.9262636 L137.523131,45.316564 L135.987246,44.304485 L133.744208,43.0204375 L132.938342,41.8562123 L126.109958,39.3527656 L124.737477,39.3527656 L124.552323,39.1460028 L123.996862,38.9392399 L123.147496,38.8957696 L123.604804,35.032481 L123.212746,33.932904 L122.897092,32.5184455 L122.864746,31.9198921 L122.929996,31.3976905 L121.949573,29.8305285 L120.871554,28.5893941 L119.346823,27.4797854 L118.366958,27.0662597 L118.247054,26.8048802 L118.12715,26.2932676 L118.12715,25.5748921 L118.160054,25.3463941 L118.345208,24.9005443 L118.595612,24.4429909 L119.205169,23.8121134 L119.444977,23.6159395 L125.434592,19.3391253 L125.706746,19.1540976 L126.109958,19.099481 L126.295112,19.0236866 L126.926419,18.5120739 L127.068073,18.2183704 L127.013977,17.8806391 L126.915823,17.6956115 L126.567265,17.2820858 L123.147496,15.9216866 L122.929996,15.9651569 L122.516188,16.0309198 L122.298131,16.0197735 L121.938977,15.9651569 L121.557515,15.9216866 L121.340015,16.3680937 L121.056708,16.2265364 L120.392496,16.1501846 L120.065688,16.1395957 L119.281573,16.0091846 L118.824265,15.9216866 L119.063515,13.8652043 L119.281573,8.86945731 L120.196188,3.17818458 L119.651881,2.45980909 L118.933015,1.70855217 L118.530362,1.42599486 L117.234285,1.12114506 L117.037977,0.957852569 L116.863977,0.859765613 L116.667669,0.794560079 L116.275612,0.794560079 L115.949362,0.892647036 L115.088842,1.48005415 L114.598631,1.686817 L114.174227,1.71969842 L113.814515,1.58928735 L113.585862,1.42599486 L113.357208,1.40425968 L113.128554,1.52352451 L112.8999,1.80663913 Z" id="Fill-8"></path>
                <polygon id="Fill-9" points="207.91009 3.42825059 207.964744 3.27610435 206.134956 2.81855099 204.087667 2.60119921 193.850667 6.46448775 188.263706 9.3051083 187.381994 9.5553415 186.564975 9.64228221 185.987763 10.0340727 185.193052 10.3277763 185.193052 10.4152743 185.268898 10.5568316 185.355898 10.600302 185.443456 10.6108909 185.704456 10.600302 185.86786 10.5568316 186.935283 10.8176538 188.089706 10.9486221 189.331129 10.9263296 195.440648 10.0992783 198.849263 9.18528617 198.75111 9.5553415 197.76009 11.9495549 196.344667 14.6592071 195.07034 15.4650806 194.340879 16.0959581 193.828917 16.6945115 193.67611 16.988215 193.622013 17.1515075 193.850667 20.329302 195.658148 21.4723494 196.344667 21.0259423 196.355263 20.8085905 196.377013 20.6993573 196.431667 20.6235628 196.562167 20.4820055 196.638571 20.4273889 196.747321 20.3839186 196.834321 20.329302 197.074129 20.2858316 197.727744 20.2969779 198.250302 20.3945075 198.64236 20.4056538 198.849263 20.3839186 199.644533 20.2206261 199.927283 20.1119502 202.497687 18.9689028 202.74809 18.9471676 203.053148 18.8713731 203.859013 18.5771123 206.134956 17.3800055 206.243706 17.2384482 206.27661 17.1626538 206.331263 17.086302 206.483513 16.6839225 206.49411 16.5529542 206.527013 16.4442783 206.527013 16.3244561 206.538167 16.3027209 206.559917 16.1723099 206.603417 15.5520213 206.34186 15.1602308 206.200206 14.9857921 206.069706 14.8771162 205.916898 14.7684403 205.775802 14.7032348 205.612398 14.6703534 205.45959 14.6592071 207.049571 11.9172308 208.868206 9.18528617 210.000879 6.46448775 210.044379 6.20366561 210.012033 6.12731383 210.000879 6.10557866 210.000879 6.0621083 209.935629 5.93113992 209.761629 5.7026419 209.739879 5.68090672 209.326071 5.32199763 209.293167 5.19102925 209.260263 5.0934996 209.184417 4.96253123 209.097417 4.85385534 208.955763 4.7340332 208.410898 4.40744822 208.171648 4.21183162 208.051744 4.09200949 207.942994 3.89639289 207.91009 3.74368933 207.898937 3.60213202"></polygon>
                <polygon id="Fill-10" points="198.479012 22.4625261 198.871069 22.6475538 200.134242 23.4640162 200.63505 23.6925142 200.679108 23.6925142 200.700858 23.7142494 200.776704 23.7359846 200.907762 23.7465735 201.060012 25.4552929 201.158165 25.9557593 201.179915 26.1084628 201.158165 26.2388739 201.125262 26.369285 201.038262 26.4673719 200.983608 26.5108423 200.940108 26.5654589 200.679108 26.7176051 200.54805 26.7610755 200.28705 26.924368 199.688088 27.4359806 199.535281 27.6104194 199.404781 27.5446565 199.110877 27.5229213 198.772915 27.5881269 198.370262 27.7296842 198.173954 27.8495063 197.803646 28.0997395 197.476838 28.2307079 197.139435 28.2195617 196.965435 28.1543561 196.802031 28.0780043 196.627473 28.3828542 196.344723 28.6442336 196.148415 28.7417632 195.440704 28.9925538 194.068223 29.6669016 193.981223 29.6669016 193.697915 29.7432534 187.697704 32.3877 187.64305 31.9195577 187.697704 30.9292138 187.849954 30.1133087 188.448915 28.3717079 188.612319 28.0780043 188.993223 25.5422336 189.059031 25.3354708 189.015531 25.2596763 189.004377 25.1721783 189.015531 24.3668621 189.516338 21.4721822 189.451088 21.3958304 189.407588 21.1890676 189.407588 20.895364 189.451088 20.5364549 189.516338 20.3296921 189.592185 20.1769885 189.625088 20.0900478 189.636242 19.9813719 189.592185 19.7311387 189.570435 19.654787 189.559838 19.6219055 189.559838 19.5895814 189.516338 19.4368779 188.155012 16.4658462 186.096569 13.7450478 185.650415 14.1914549 185.421204 16.9339885 185.421204 19.883285 185.19255 22.8325814 185.073204 22.9629925 184.898646 23.3876644 184.735242 24.8350043 184.735242 25.3354708 184.136281 26.8591625 183.831223 28.0239451 183.777127 28.7200281 183.787723 28.8615854 183.831223 28.9925538 182.916608 32.3877 182.840204 32.7906368 182.829608 32.8123719 182.829608 32.9321941 182.731454 33.4432494 182.48105 34.2162415 182.448146 34.3249174 182.295896 34.5968858 182.262992 34.706119 182.056088 35.0321466 181.925588 35.173704 181.882088 35.2065854 181.805685 35.3152613 181.555281 35.5766407 181.664031 36.3925458 181.598781 37.2853601 181.337781 38.2210874 179.496838 42.857368 179.453338 43.0747198 179.377492 43.3032178 179.050685 43.7713601 178.919627 43.9017711 178.702127 44.3587672 178.593377 44.6853522 177.3843 46.7423917 175.347608 49.7022771 174.498242 50.5950913 174.269588 50.5081506 174.030338 50.4858581 173.801685 50.5081506 173.583627 50.5950913 172.669012 51.2805854 172.625512 51.3786723 172.614358 51.5090834 172.625512 51.6394945 172.657858 51.7810518 172.723108 51.9226091 172.951762 52.2274589 173.126319 52.4124866 173.278569 52.347281 173.453127 52.3361348 173.801685 52.347281 174.139088 52.4448107 174.498242 52.6409846 174.91205 52.7931308 174.999608 52.7931308 175.097204 52.8042771 175.282358 52.8042771 175.435165 52.7608067 175.587415 52.6844549 175.620319 52.6409846 175.652665 52.6192494 175.729069 52.5540439 175.859569 52.4124866 176.523781 52.2163126 177.220896 51.9008739 178.593377 50.8235893 180.640665 48.549198 182.916608 45.5887553 184.735242 42.4109609 184.97505 41.4969688 187.250992 34.8905893 194.536685 31.9418502 194.700088 31.9741743 194.874088 31.9959095 195.266146 31.9418502 195.679954 31.7568225 196.355319 31.365032 197.259338 31.0273008 200.221242 30.581451 200.210646 30.6466565 200.210646 30.8751545 200.003742 32.8993126 199.361281 34.8905893 198.925723 35.6418462 198.871069 35.7505221 198.794665 35.8486091 198.729415 35.946696 198.293858 36.5341032 197.607896 37.2307435 197.248185 37.5027119 197.204685 37.5573285 195.919762 38.6017316 195.724012 38.8631111 195.658204 38.9935221 195.604108 39.0810202 195.571204 39.2766368 195.604108 39.3747237 195.636454 39.4510755 195.701704 39.52687 195.778108 39.5920755 195.898012 39.6684273 199.992588 38.3080281 200.101896 38.3191743 200.221242 38.3080281 200.537454 38.2428225 201.288665 37.851032 203.412358 36.0336368 203.357704 35.859198 203.357704 35.7070518 203.390608 35.5549055 203.554012 35.2717909 203.695665 35.1413798 203.869665 35.0104115 204.087723 34.8905893 205.459646 31.7127949 206.363665 30.581451 207.964242 29.4384036 210.000935 28.9925538 210.316588 29.1335538 210.56755 29.1447 210.6763 29.0900834 210.686896 29.0683482 210.708646 29.046613 210.7633 29.0142889 210.970204 28.6765577 211.133608 28.5350004 211.253512 28.4592059 211.362262 28.361119 211.645569 28.1649451 211.830723 28.0780043 214.782031 28.0780043 214.836127 27.9475933 214.999531 27.6538897 215.511492 26.924368 216.382608 26.0215221 216.546012 25.673202 216.611262 25.3354708 215.783646 24.7586526 215.272242 24.5413008 215.032435 24.4760953 212.059377 23.9750715 209.783435 23.9750715 207.964242 24.2147158 207.354685 23.9533364 206.929723 23.681368 206.777473 23.5292217 206.712223 23.45287 206.679319 23.3876644 206.614069 23.2243719 206.603473 23.0722257 206.320165 22.7562296 206.145608 22.6475538 205.75355 22.4625261 205.274492 22.3861743 205.002338 22.3861743 202.943896 21.7006802 200.679108 21.2436842 200.602704 21.3417711 200.54805 21.3852415 200.50455 21.4393008 200.2653 21.5920043 200.177742 21.5920043 200.177742 21.6025933 200.101896 21.6243285 200.003742 21.6243285 200.003742 21.6460636 199.927338 21.6677988 199.731588 21.6900913 198.402608 21.7006802 198.272108 21.8205024 198.043454 22.1688225 197.934704 22.3861743"></polygon>
                <path d="M164.708065,0 L164.457662,0.0111462451 L164.239604,0.0652055336 L164.142008,0.108675889 L163.978046,0.239644269 L163.912796,0.32658498 L163.792892,0.544494071 L166.069392,3.0473834 L167.430719,8.27107115 L167.212662,10.3281107 L166.5267,12.1560949 L166.667796,12.3199447 L166.777104,12.5155613 L166.842354,12.7005889 L166.864104,12.9396759 L166.842354,13.1687312 L166.777104,13.4189644 L166.5267,13.9629012 L166.407354,14.0827233 L165.383431,15.3344466 L164.696912,15.834913 L164.359508,15.9653241 L164.174354,16.0087945 L164.022104,16.0199407 L161.963662,18.294332 L155.821238,21.4721265 L148.775354,24.8895652 L149.221508,25.3359723 L155.799488,25.890498 L157.836181,25.9557036 L159.665969,25.8793518 L159.785873,25.8581739 L160.145027,25.8141462 L160.297277,25.7818221 L160.363085,25.7818221 L160.580585,25.7489407 L161.233642,25.5750593 L161.288296,25.5750593 L163.564796,25.1180632 L163.738796,25.0523004 L164.446508,24.9330356 L164.926123,24.9436245 L165.295873,25.0093874 L165.426931,25.0523004 L165.644431,25.1721225 L165.840181,25.3359723 L165.383431,25.3359723 L165.840181,28.5243557 L165.720835,28.6330316 L165.633835,28.7422648 L165.492181,28.9702055 L165.415777,29.2098498 L165.383431,29.4383478 L165.459277,29.5470237 L165.492181,29.6345217 L165.503335,29.7214625 L165.459277,29.8959012 L165.383431,30.113253 L164.522912,30.7993043 L164.142008,30.9620395 L163.792892,31.0272451 L163.498988,31.4301818 L163.390238,31.4953874 L163.303238,31.5717391 L163.205085,31.6369447 L161.059642,33.2475771 L160.373681,33.6393676 L160.123277,33.7263083 L159.926969,33.7697787 L156.735854,36.4905771 L156.561854,36.588664 L156.518354,36.588664 L156.442508,36.6321344 L156.300296,36.6756047 L155.483835,36.8388972 L152.630123,36.9481304 L152.630123,37.0345138 L152.597777,37.0785415 L152.587181,37.1326008 L152.456123,37.2853043 L152.357969,37.3176285 L152.314469,37.3176285 L152.238065,37.3610988 L152.096969,37.382834 L151.987662,37.382834 L151.955315,37.3939802 L151.846565,37.5026561 L151.704912,37.7205652 L151.660854,37.8509763 L151.650258,38.0794743 L151.660854,38.1775613 L151.726662,38.3085296 L151.726662,39.9080158 L152.413181,41.496913 L152.369123,41.6273241 L152.357969,41.7694387 L152.413181,42.3022292 L152.445527,42.4326403 L152.564873,42.6940198 L152.815277,43.074664 L153.164392,43.4229842 L153.316642,43.5539526 L155.364488,44.6852964 L155.930546,44.4027391 L156.039296,44.381004 L156.148046,44.4027391 L156.278546,44.4462095 L156.3767,44.511415 L156.507758,44.6200909 L156.735854,44.9137945 L156.627104,45.0118814 L156.48545,45.2732609 L156.442508,45.4148182 L156.431354,45.7085217 L156.442508,45.8612253 L156.670604,46.5573083 L156.735854,47.1887431 L156.823412,47.2322134 L156.932162,47.3080079 L157.127912,47.5153281 L157.280719,47.7761502 L157.422373,48.0921462 L157.531123,48.2225573 L158.097738,49.0061383 L158.249988,49.0061383 L158.5662,49.0824901 L158.84895,49.2675178 L158.990604,49.3761937 L159.241008,49.6916324 L159.349758,49.7791304 L159.741815,50.0182174 L160.036277,50.0945692 L160.373681,50.1380395 L160.525931,50.2573043 L160.678738,50.4211542 L160.940296,50.8235336 L161.136046,51.3345889 L161.288296,51.966581 L163.346738,53.5554783 L163.346738,54.6979684 L166.298046,57.8863518 L166.407354,57.8211462 L166.516104,57.7999684 L166.7442,57.8211462 L166.984565,57.9086443 L167.332565,58.1912016 L167.386662,58.224083 L167.485373,58.2675534 L167.888027,58.3327589 L169.0207,56.9723597 L169.1512,56.7221265 L169.379854,56.1558972 L169.641412,55.1114941 L169.804815,53.3375692 L169.804815,52.8911621 L169.815412,52.8371028 L169.717815,49.9201304 L169.630258,49.7791304 L169.478008,49.4085178 L169.336354,48.9080514 L169.097104,47.0689209 L169.0207,39.9080158 L168.595738,38.7326443 L168.421738,37.3176285 L168.563392,36.360166 L168.770296,35.7504664 L169.074796,35.1847945 L169.489162,34.6731818 L170.849931,32.6161423 L172.908373,30.5813953 L174.1392,29.6562569 L174.944508,29.2098498 L175.336565,28.6330316 L175.631027,27.8500079 L178.593488,23.9750158 L178.593488,22.8325257 L178.364277,22.6146166 L176.992354,23.7470751 L176.840104,23.9644269 L176.622046,24.2146601 L175.957835,24.7156838 L173.801238,25.8041146 L173.735988,25.8041146 L173.300431,25.9557036 L172.723219,26.2499644 L172.451065,26.3586403 L169.935315,27.6098063 L169.717815,27.6098063 L171.525296,21.9291225 L175.587527,19.9155534 L175.957835,19.6001146 L176.273488,19.1213834 L176.5462,18.52283 L176.142988,18.3378024 L176.001335,18.1962451 L175.859681,17.9571581 L175.805027,17.7503953 L175.794431,17.5218972 L175.816181,17.271664 L175.859681,17.1518419 L175.848527,16.9339328 L175.805027,16.7383162 L175.685681,16.4117312 L175.576931,16.2701739 L175.456469,16.172087 L175.315373,16.0851462 L175.173719,16.0199407 L173.801238,14.8768933 L171.993758,13.7455494 L171.993758,13.3643478 L172.069604,12.7005889 L172.244162,12.1889763 L172.364065,11.9822134 L172.505719,11.8194783 L172.669123,11.6885099 L173.126431,8.27107115 L172.908373,6.68217391 L172.908373,4.8759249 L172.581565,4.74495652 L172.331162,4.60339921 L172.124258,4.45125296 L171.983162,4.28796047 L171.917354,4.19043083 L171.8627,3.99425692 L171.8627,3.90731621 L171.88445,3.69999605 L171.993758,3.49379051 L169.935315,1.45848617 L169.314604,1.09957708 L167.888027,0.544494071 L167.789873,0.555083004 L167.702873,0.576818182 L167.234969,0.609699605 L166.667796,0.555083004 L165.622681,0.315996047 L164.980219,0.0546166008 L164.708065,0 Z M165.121873,47.5916798 L165.023719,47.5693874 L164.947315,47.5582411 L163.630046,46.9819802 L161.288296,45.5886996 L159.480258,44.1307708 L159.241008,43.9998024 L159.0012,43.8041858 L158.881854,43.6737747 L158.783142,43.488747 L158.729046,43.3360435 L158.717892,43.172751 L158.729046,43.0094585 L158.783142,42.8573123 L160.525931,41.9433202 L160.820392,41.7142648 L160.994392,41.4857668 L160.994392,41.4428538 L161.026738,41.366502 L161.059642,41.2678577 L162.998181,40.0166917 L163.237988,39.9186047 L163.346738,39.9080158 L163.92395,39.1790514 L164.217854,38.8853478 L164.838565,38.4277945 L165.492181,38.1446798 L165.840181,38.0794743 L165.840181,41.2678577 L165.383431,47.6345929 L165.121873,47.5916798 Z" id="Fill-11"></path>
                <polygon id="Fill-12" points="211.754375 37.0021897 211.602125 36.9475731 208.683163 37.4374506 207.039087 37.9596522 204.92599 38.9065257 202.943952 40.1365138 198.402663 42.4109051 197.259394 42.8573123 195.44076 41.9539091 194.820048 41.7906166 194.55849 41.6707945 194.351587 41.5515296 194.155279 41.3770909 194.014183 41.2137984 193.948375 41.1051225 193.916029 41.0181818 193.850779 40.811419 193.730875 39.3858142 193.578625 38.9611423 193.491067 38.8413202 193.393471 38.7649684 192.249644 39.9080158 192.184394 40.0601621 192.08624 40.5283043 192.075644 40.8331542 192.08624 40.9529763 192.19499 41.3447668 192.249644 41.4422964 192.489452 41.7688814 192.706952 41.9539091 193.153663 44.2283004 193.850779 46.2741937 193.697971 46.3722806 193.436971 46.6553953 193.05551 47.4389763 192.772202 48.7776403 192.728702 49.0824901 192.706952 50.1380395 192.979663 50.2361265 193.03376 50.2578617 193.676221 50.4863597 194.155279 50.5838893 194.221087 50.5838893 194.296933 50.5950356 194.49324 50.6496522 194.678394 50.7254466 194.798298 50.8235336 194.917644 50.9322095 194.983452 51.0520316 195.015798 51.1935889 194.983452 51.5090277 195.037548 51.6617312 195.277356 52.107581 195.364356 52.2168142 195.48426 52.3360791 195.72351 52.5211067 195.996221 52.662664 196.300721 52.7824862 197.041337 52.8694269 197.194144 52.9457787 197.368144 53.0109842 197.705548 53.0327194 198.04351 52.9023083 198.21751 52.7824862 199.63349 51.780996 199.76399 51.7269368 199.89449 51.5742332 199.970894 51.4655573 200.003798 51.4332332 200.199548 51.1172372 200.319452 50.768917 200.374106 50.4205968 200.374106 50.213834 200.341202 49.8331897 200.297702 49.6810435 200.297702 49.6375731 200.275952 49.5718103 200.177798 49.2129012 199.992644 48.7776403 200.014394 46.6988656 200.047298 46.503249 200.047298 46.3070751 200.112548 45.8718142 200.156048 45.6867866 200.221298 45.5886996 205.219894 42.8573123 207.049683 42.4109051 209.108125 41.7254111 209.554279 41.7471462 209.695933 41.7906166 209.924587 41.8775573 210.012144 41.9321739 210.120894 42.0085257 210.262548 42.1606719 210.371298 42.3568458 210.436548 42.5853439 210.469452 42.8573123 208.617913 45.294996 208.127702 45.8066087 206.363721 47.1887431 205.72126 47.1235375 205.394452 47.1341265 205.111144 47.1887431 204.784337 47.3303004 204.64324 47.4718577 204.599183 47.5476522 204.566837 47.6457391 204.545087 47.8636482 202.943952 48.0921462 201.353971 48.5491423 201.147067 48.6578182 201.005413 48.7882292 200.918413 48.9191976 200.896663 49.0607549 200.918413 49.2017549 201.005413 49.3544585 201.147067 49.5066047 201.615529 49.8983953 201.974683 50.3230672 202.061683 50.4969486 202.08399 50.540419 202.138087 50.7148577 202.138087 50.7583281 202.14924 50.8017984 202.159837 50.9104743 202.116337 51.084913 202.08399 51.1283834 202.072837 51.1824427 202.039933 51.2805296 204.087779 51.9660237 207.725048 52.4124308 210.00099 52.4124308 212.059433 52.8694269 212.255183 52.7936324 212.331587 52.7824862 212.38624 52.7496047 212.571394 52.662664 212.810644 52.4993715 213.028702 52.2926087 213.202702 52.0423755 213.322606 51.8250237 213.366106 51.7592609 213.39901 51.6617312 213.50776 51.422087 213.55126 51.2699407 213.57301 51.2264704 213.649413 51.0520316 211.830779 49.6916324 210.00099 48.7776403 209.968087 48.6249368 209.93574 48.2554387 209.968087 47.9288538 210.00099 47.852502 210.06624 47.6892095 210.175548 47.5693874 210.294894 47.4824466 210.81801 47.2539486 211.198913 47.0037154 212.059433 46.2741937 213.649413 44.4462095 215.01074 42.4109051 215.24999 41.496913 215.174144 40.6369802 214.956087 39.8862806 214.596933 39.2659921 214.357125 38.9940237 214.106721 38.7649684 213.747567 38.7978498 213.562413 38.7649684 213.409606 38.6997628 213.224452 38.5799407 212.897644 38.2756482 212.745394 38.0794743 212.49499 37.6553597 212.353337 37.4809209 212.070029 37.1983636"></polygon>
                <polygon id="Fill-13" points="110.965656 78.229085 110.574156 77.9593458 110.127444 77.7447806 109.45654 77.5681126 109.093483 77.5123814 108.36681 77.5681126 108.05004 77.6517095 107.630656 77.8099862 107.286002 78.052417 107.099733 78.2474763 106.950829 78.4804328 107.91006 80.044251 108.49731 81.5991522 108.608848 81.6922233 108.795117 81.9246225 108.878771 82.0645079 109.037156 82.5203893 109.074521 82.7065316 109.074521 83.5257806 108.888252 84.5127806 108.888252 85.8715079 108.636733 86.1228557 108.599367 86.2159269 108.543598 86.2811324 108.49731 86.4210178 108.49731 86.5046146 108.515713 86.6071601 108.543598 86.6539743 108.599367 86.7097055 108.636733 86.7470455 108.720387 86.7838281 108.888252 86.8490336 108.795117 87.1377213 108.49731 87.6309427 108.49731 90.5540455 108.11529 93.2815316 107.91006 96.1862431 107.584367 96.8845553 107.304963 97.740587 107.211829 98.3084881 107.202348 98.4857134 107.239713 98.9878518 107.332848 99.3044051 106.997117 99.7608439 106.782963 100.273014 106.652463 100.849832 106.624579 101.054923 106.661944 101.929903 106.745598 102.41365 107.034483 102.357919 107.323367 102.218591 108.888252 100.673164 109.670694 99.3044051 110.052713 97.7500613 111.040387 95.413251 110.98406 95.3017885 110.965656 95.2087174 110.98406 95.0131008 111.05879 94.8174842 111.226656 94.6408162 111.226656 93.6632905 111.45029 93.2352747 111.496579 93.1795435 112.288502 91.3270375 113.182483 87.8265593 114.346944 84.1310217 113.946521 82.1854447 113.182483 80.2398676 112.40004 79.8486344 111.757579 79.2528676 111.552348 78.9647372 111.421848 78.6760494 111.31031 78.5456383"></polygon>
                <polygon id="Fill-14" points="122.526004 91.1406166 122.460754 91.0848854 122.339735 91.0570198 122.18135 91.1032767 122.013485 91.2242134 121.939312 91.3267589 122.013485 91.41983 122.078735 91.5686324 122.134504 91.9130514 122.069812 91.9972055 122.013485 92.0808024 121.882985 92.2485534 121.547812 92.4999012 117.849754 94.0447708 115.51135 95.6091462 113.564446 97.1634901 114.924658 98.3271581 115.223023 98.6342372 115.381408 98.7367826 115.548715 98.8114625 115.716581 98.8393281 115.90285 98.8393281 116.293792 98.7273083 119.796658 96.9678735 127.528504 94.0542451 127.593754 94.0447708 127.667927 94.1010593 127.742658 94.1751818 127.807908 94.268253 127.873158 94.3891897 127.910523 94.5106838 128.022062 95.4508696 128.170965 95.9998221 126.950735 99.2116126 126.894965 99.3046838 126.867081 99.3977549 126.829715 99.4534862 126.811312 99.5092174 125.833119 104.173364 124.268235 108.641336 121.361542 115.455593 118.800062 119.244202 118.138638 119.924123 117.430369 120.417344 116.685292 120.715506 114.728908 120.715506 113.182985 119.542364 112.782004 119.542364 112.6331 119.523972 112.512081 119.477158 112.391062 119.402478 112.288446 119.30049 112.185831 119.160605 112.046408 118.797794 111.999562 118.574312 111.701754 118.369221 111.552292 118.220419 111.272888 117.876 110.472042 116.191245 109.856908 114.096308 110.8351 112.541964 111.170831 112.467285 111.794888 112.402079 112.3721 112.421028 112.912504 112.53249 113.397138 112.728107 113.825446 112.997846 114.225869 113.370688 114.5616 113.817095 114.728908 114.096308 115.865485 114.39447 115.912331 114.412862 116.219619 114.487542 116.275388 114.515407 118.473812 115.045968 118.511177 115.045968 118.557465 115.064917 118.58535 115.064917 118.632196 115.073834 119.256254 114.46915 119.452004 114.161514 119.600908 113.854435 119.656677 113.51949 119.656677 113.361213 119.610388 113.026269 119.414638 112.541964 118.194408 111.173763 117.514581 110.531182 116.936812 110.131032 116.564273 109.953806 116.238023 109.860735 114.49635 109.693542 111.040331 109.618862 110.639908 110.010095 109.279696 110.987621 108.981331 111.554964 108.497254 112.150731 108.487773 112.24436 108.450408 112.355822 108.338869 112.588779 107.910004 113.128257 107.854235 113.212411 107.82635 113.323874 107.742696 113.808178 107.528542 116.814877 108.497254 118.956071 108.515658 119.067534 109.475446 120.715506 110.052658 122.083708 111.2266 123.247375 111.393908 123.247375 111.739119 123.312581 112.036927 123.461383 112.167427 123.563929 112.288446 123.684866 112.399985 123.824194 112.456312 124.001419 112.484196 124.075542 112.539965 124.16917 112.660985 124.308498 112.82885 124.448383 113.005638 124.559846 113.219792 124.662391 113.760196 124.801719 115.51135 125.583628 116.675812 125.769771 117.3746 125.807111 118.324908 125.71404 118.557465 125.639917 118.594831 125.639917 118.874235 125.546846 119.36835 125.304415 119.796658 124.987862 120.178677 124.60666 120.467562 124.56932 120.755888 124.476249 121.193677 124.224901 121.343138 124.112881 121.631465 123.833668 121.734081 123.703257 121.771446 123.675391 121.929831 123.508198 122.526004 122.661083 125.637369 119.542364 125.637369 119.430901 125.702619 119.179553 126.084638 118.555364 126.224062 118.378696 126.270908 118.31349 126.410331 118.024802 126.615562 117.40117 130.117869 110.205154 134.403177 99.8909763 134.403177 99.7795138 134.449465 99.528166 134.533677 99.2394783 134.785196 98.7273083 134.822004 98.6158458 134.831485 98.5506403 134.859369 98.4949091 134.887254 98.234087 134.878331 98.1410158 134.878331 98.066336 134.785196 97.5547233 134.989869 96.5861146 133.900138 94.2314704 133.257119 93.2539447 133.1361 93.1140593 133.033485 93.0115138 132.847215 92.8816601 132.847215 92.6860435 130.499888 91.1406166 129.73585 90.8335375 128.022062 90.3770988 127.416408 90.3213676 126.8576 90.3492332 126.326677 90.4517787 124.081408 91.3267589 123.3921 91.3824901 122.991677 91.3362332 122.665985 91.2152964"></polygon>
                <polygon id="Fill-15" points="89.0373615 82.0457265 88.5343231 81.943181 88.2922846 81.943181 88.0496885 81.9899953 86.6900346 83.3487225 87.1373038 83.5816791 87.1835923 83.5911534 87.3514577 83.6563589 87.3888231 83.6652759 87.5561308 83.7304814 87.9197462 83.7772957 87.9197462 83.7678213 88.0870538 83.7678213 88.1617846 83.7399557 88.2454385 83.7304814 88.2454385 87.8267265 88.3106885 88.0407344 88.3480538 88.3015565 88.3385731 88.4408846 88.2454385 88.9903945 86.6900346 92.3041731 85.12515 94.4453668 84.9294 96.7169715 84.9104385 96.7816198 84.8920346 96.7816198 84.8920346 96.8562996 84.8736308 96.8841652 84.86415 96.8841652 84.86415 96.9120308 84.7894192 97.1076474 84.6962846 97.2191099 84.6684 97.2475328 84.60315 97.340604 84.5005346 97.4058095 84.4821308 97.4425921 84.2027269 97.6850229 83.7649385 98.1966356 83.6249577 98.4201178 83.5786692 98.5321375 84.5473808 98.9133391 87.8544962 96.185853 89.6151308 94.0452166 91.7572269 91.9134972 91.7667077 91.8293431 91.8503615 91.6153352 92.0366308 91.3266474 92.1113615 91.1873194 92.9216885 89.9584458 92.9216885 89.9027146 93.0337846 89.1486711 92.9685346 88.1059399 92.3349962 85.2942996 91.4594192 84.0381178 90.3507269 82.8276356 90.0808038 82.6136277 89.5498808 82.2597344"></polygon>
                <path d="M92.8287212,110.512623 L92.912375,110.810785 L92.9218558,110.987453 L92.5398365,112.93303 L92.4372212,113.277449 L92.3351635,113.984679 L92.3351635,114.096698 L92.4282981,114.608311 L92.4282981,114.682991 L92.4372212,114.776062 L92.4004135,115.036884 L92.3814519,115.092615 L92.3725288,115.157821 L92.3351635,115.269283 L92.3351635,115.278758 L92.4188173,115.437034 L92.4188173,115.446509 L92.4840673,115.595311 L92.4935481,115.660517 L92.5119519,115.735196 L92.5119519,115.763062 L92.5214327,115.781453 L92.5398365,115.856133 L92.2141442,116.070141 L91.8694904,116.246809 L91.4779904,116.37722 L91.1612212,116.442426 L91.1333365,116.442426 L91.0586058,116.479766 L90.1177788,116.535497 L89.0280481,116.432951 L87.5284135,111.173596 L87.1279904,110.093525 L87.0811442,110.009928 L87.1837596,109.954196 L87.3047788,109.907382 L87.6025865,109.83326 L88.3945096,109.712323 L91.2733173,109.637643 L91.8878942,109.740189 L92.2325481,109.879517 L92.5024712,110.037793 L92.6145673,110.140339 L92.6982212,110.251801 L92.781875,110.382212 L92.8287212,110.512623 Z M86.6896442,100.868335 L85.5257404,102.032003 L89.0280481,102.813912 L92.5398365,101.455185 L92.6982212,101.641327 L92.8566058,101.864809 L93.0618365,102.376422 L93.1549712,102.944323 L93.1176058,105.72754 L93.1549712,105.857951 L93.1549712,105.91424 L93.1638942,105.978888 L93.1549712,106.016228 L93.1549712,106.072517 L93.1176058,106.165588 L93.0523558,106.193453 L93.042875,106.221319 L92.977625,106.249185 L92.9687019,106.27705 L92.9034519,106.286525 L92.847125,106.304916 L92.7450673,106.304916 L92.7261058,106.31439 L91.7573942,106.705066 L91.5248365,106.75188 L91.2638365,106.742406 L90.9375865,106.658809 L90.5929327,106.500532 L85.7209327,107.682592 L85.6556827,107.617386 L85.4604904,107.18937 L85.3299904,106.705066 L83.3830865,105.141248 L81.4361827,103.195671 L81.2125481,103.167805 L81.1472981,103.13994 L81.1288942,103.130465 L81.0915288,103.130465 L80.9794327,103.1026 L80.3458942,102.758181 L80.0949327,102.711924 L79.8060481,102.711924 L79.4703173,102.758181 L79.2935288,102.813912 L80.4579904,104.554955 L81.2404327,107.086825 L81.8182019,108.641726 L82.0133942,110.205544 L81.957625,110.289141 L81.9202596,110.531015 L81.9202596,110.819702 L81.957625,111.173596 L82.0786442,111.592694 L82.1160096,111.852959 L82.0133942,112.541797 L82.7958365,116.042275 L84.0907981,119.4586 L84.1560481,119.542196 L89.0280481,121.68339 L90.3882596,121.106015 L91.7573942,120.901481 L91.8505288,120.817884 L92.2509519,120.603319 L93.9652981,120.054366 L97.0114135,119.356054 L97.0671827,119.244592 L97.2255673,119.011635 L97.7938558,118.50894 L97.9896058,118.378528 L98.2037596,118.071449 L98.3152981,117.782762 L98.306375,117.503548 L98.2500481,117.345272 L98.175875,117.21486 L97.4023558,116.628568 L98.4273942,109.609777 L98.7720481,105.72754 L99.1540673,104.508141 L99.1629904,104.396679 L99.1819519,104.303608 L99.1819519,104.220011 L99.2003558,104.154805 L99.1819519,104.0896 L99.1819519,104.042785 L99.1540673,103.97758 L99.1540673,103.912374 L99.2003558,103.791438 L99.2377212,103.726232 L99.2840096,103.633161 L99.4423942,103.474884 L99.5355288,103.391287 L99.3492596,103.000054 L99.386625,102.906983 L99.4239904,102.83286 L99.4613558,102.702449 L99.4797596,102.674584 L99.5355288,102.320691 L99.5266058,102.209228 L99.517125,102.190279 L99.517125,102.106683 L99.4987212,102.004137 L99.4797596,101.976272 L99.4797596,101.901592 L99.3492596,101.455185 L98.7720481,100.086426 L98.6789135,99.6584099 L98.5484135,99.276651 L98.3621442,98.9227577 L98.1290288,98.6156787 L97.8217404,98.3269909 L97.653875,98.2060542 L97.2813365,97.9920462 L96.6293942,97.7501727 L93.3133558,97.1633229 L90.1925096,99.3045166 L90.1272596,99.3045166 L89.9872788,99.3513308 L89.7920865,99.444402 L89.1027788,99.928149 L88.823375,100.077509 L88.6649904,100.114291 L88.5344904,100.123766 L88.2456058,100.086426 L86.6896442,100.868335 Z" id="Fill-16"></path>
                <polygon id="Fill-17" points="279.493858 66.9234486 279.373954 66.95633 279.265204 67.0109466 279.0583 67.1736818 279.1018 67.5548834 279.155896 67.7505 279.254608 67.9466739 281.3783 71.2225553 281.083838 71.9844012 280.604781 72.7679822 277.522973 79.5153617 275.976492 82.018251 275.202973 82.9868597 274.625762 84.7167569 273.656492 85.489749 272.698377 86.4477688 270.378377 86.2621838 269.986319 86.7085909 269.790569 87.0463221 269.714165 87.2313498 269.605415 87.6119941 270.378377 92.8139466 270.770435 100.530492 269.997473 107.658516 268.831896 113.252259 268.254685 113.829077 267.873781 116.52814 269.126358 121.403508 269.365608 122.067824 269.507262 122.306911 269.648915 122.459615 269.724762 122.513674 269.812319 122.545998 269.899319 122.557144 269.986319 122.557144 270.182627 122.502528 271.151896 122.121883 271.924858 121.925709 272.121165 121.741239 272.328069 121.132097 273.275588 119.042176 275.007223 113.829077 275.976492 105.928061 277.326665 105.3518 279.0583 105.155626 279.286954 105.002923 279.330454 104.992334 280.114569 104.524192 281.475896 103.436318 282.434012 102.858943 282.924223 102.652737 283.457935 102.826619 283.795338 103.022235 284.274396 103.414026 283.882896 106.886081 283.697185 122.698702 283.501435 129.250464 283.501435 140.818595 287.356204 140.241777 288.706935 134.463563 289.284146 126.747018 289.676204 117.692366 289.284146 112.479267 288.902685 104.00199 287.552512 100.911136 288.129723 100.530492 289.676204 100.138702 292.572858 98.7888913 298.159819 97.4396383 296.809646 94.1637569 296.504588 93.9023775 296.069031 93.6521443 295.938531 93.6198202 295.655223 93.5869387 294.108742 93.967583 288.129723 93.967583 286.778992 94.1637569 286.398088 94.7405751 285.233069 94.9361917 283.697185 97.4396383 276.749454 101.487955 275.202973 102.064773 275.007223 98.7888913 274.233704 92.8139466 272.502069 89.5380652 272.698377 89.3530375 272.926473 89.1903024 273.176877 89.0598913 273.471338 88.961247 274.233704 88.5694565 274.822069 87.4158202 276.945762 86.839002 279.0583 84.7167569 283.305685 80.0921798 285.820877 76.0438636 286.201781 75.0752549 286.212935 74.7704051 286.300492 74.2041759 286.398088 73.9216186 285.428819 73.1486265 280.027569 66.9780652 279.874762 66.9234486 279.744262 66.9128597"></polygon>
                <polygon id="Fill-18" points="264.49779 87.4053427 263.245213 86.6434968 262.515752 86.6869672 262.188944 86.7415838 261.89504 86.8396708 261.350733 86.8831411 261.121521 86.9372004 260.925771 87.0352874 260.32681 86.9806708 260.087002 86.9154652 259.913002 86.8396708 259.760194 86.7198486 259.694944 86.6546431 259.651444 86.5888802 259.607944 86.5019395 259.586194 86.4261451 259.575598 86.0995601 259.706098 85.4463901 260.34856 84.1406075 260.54431 79.5154731 262.080194 72.7675364 262.657406 71.0264929 262.646252 70.9395522 262.613906 70.8743466 262.559252 70.8085838 262.482848 70.7433783 262.265348 70.6129672 261.361329 70.3081174 259.956502 70.0690304 259.575598 70.4496747 258.421175 70.8308763 258.029117 71.2226668 257.647656 71.0264929 257.451906 71.1351688 257.081598 71.4511648 256.743637 71.8864257 256.439137 72.4415087 255.905425 73.7255561 257.647656 75.6516273 258.029117 77.7738723 256.678387 86.6434968 256.297483 87.7971332 256.286329 87.8840739 256.253983 87.9710146 256.232233 87.9821609 256.144675 88.1343071 255.959521 88.2652755 255.894271 88.2870107 255.861925 88.2870107 255.861925 88.2975996 255.840175 88.3193348 255.720271 88.3845403 254.751002 88.569568 247.42181 91.0836036 244.720906 92.2372399 240.473521 93.2058486 239.504252 93.5870502 238.349829 93.3908763 237.576867 93.3908763 237.391713 92.8140581 237.195406 91.6604217 238.349829 89.7343506 237.968925 89.3425601 236.629348 90.0609356 236.291944 90.3434929 235.845233 90.887987 235.648925 94.359485 236.040983 95.3175047 236.999656 99.1807933 240.854983 100.715074 242.640713 100.475987 243.566483 100.171137 248.771983 97.830983 250.122713 97.4391925 254.946752 94.7406866 255.066656 94.7406866 255.284713 94.8058921 255.371713 94.8816866 255.480463 95.0561253 255.513367 95.1759474 255.523963 95.3175047 254.751002 97.0585482 254.554694 98.2121846 246.844598 105.928173 246.69179 106.646548 246.64829 107.277426 245.875329 108.627236 246.071079 109.00788 245.10181 110.357691 245.047713 110.401161 245.01481 110.466366 244.960713 110.640248 244.916656 111.130125 245.025963 111.608857 245.406867 112.566876 245.679021 113.056196 246.441387 113.916129 247.225502 114.601623 248.445175 114.014216 248.456329 113.992481 248.771983 113.829189 249.490848 113.197754 252.82306 109.584698 253.596579 107.854244 253.694733 107.832509 253.748829 107.810774 253.825233 107.800185 254.17379 107.658627 253.781733 111.130125 254.23904 122.002173 254.489444 123.417189 254.751002 124.24424 255.720271 124.439857 256.493233 125.201702 258.606329 124.24424 259.194137 123.090604 259.575598 120.576568 258.998387 115.75526 258.998387 105.351355 259.956502 105.536382 260.23981 105.666793 260.533713 105.873556 261.121521 106.504991 263.245213 105.351355 264.007579 101.488066 264.007579 101.42286 264.072829 101.248422 264.149233 101.150335 264.225637 101.008777 264.595944 100.530046 265.173156 99.3658209 265.118502 98.8870897 265.053252 98.7343862 265.009752 98.6691806 264.976848 98.6362992 264.911598 98.5928289 264.791694 98.5710937 264.639444 98.614564 264.47604 98.712651 264.399637 98.7890028 262.853156 100.715074 259.956502 100.530046 259.749598 100.541192 259.128887 100.661015 258.998387 100.715074 258.998387 99.1807933 259.194137 98.4078012 261.698733 95.1324771 261.698733 95.0232439 261.76454 94.7947458 261.91679 94.5556589 262.134848 94.2942794 262.275944 94.1638684 262.374098 93.9676945 262.668002 93.575904 262.853156 93.3908763 262.853156 90.887987 262.95131 90.7029593 263.071213 90.5502557 263.191117 90.4309909 263.473867 90.2894336 263.637271 90.2676984 263.811829 90.2676984 264.007579 90.3111688 264.781098 89.3425601 264.781098 90.3111688 266.751983 90.3111688 266.88304 90.3434929 266.99179 90.3434929 267.03529 90.3546391 267.05704 90.3434929 267.14404 90.3434929 267.18754 90.332904 267.242194 90.332904 267.285694 90.2894336 267.285694 90.2565522 267.296848 90.2565522 267.318598 90.234817 267.307444 90.1913466 267.307444 90.1584652 267.296848 90.13673 267.296848 90.1044059 267.285694 90.0609356 267.16579 89.8647617 266.664983 89.2556194"></polygon>
            </g>
        </g>
    </g>
</svg>